<svg width="24" height="24" viewBox="0 0 24 24" fill="none" xmlns="http://www.w3.org/2000/svg">
<path d="M12 13.5C14.0625 13.5 15.75 15.1875 15.75 17.25C15.75 17.6719 15.375 18 15 18H6C5.57812 18 5.25 17.6719 5.25 17.25C5.25 15.1875 6.89062 13.5 9 13.5H12ZM10.5 12C8.8125 12 7.5 10.6875 7.5 9C7.5 7.35938 8.8125 6 10.5 6C12.1406 6 13.5 7.35938 13.5 9C13.5 10.6875 12.1406 12 10.5 12ZM22.5 15C22.875 15 23.25 15.375 23.25 15.75V18.75C23.25 19.1719 22.875 19.5 22.5 19.5H21.75V15H22.5ZM22.5 3C22.875 3 23.25 3.375 23.25 3.75V6.75C23.25 7.17188 22.875 7.5 22.5 7.5H21.75V3H22.5ZM22.5 9C22.875 9 23.25 9.375 23.25 9.75V12.75C23.25 13.1719 22.875 13.5 22.5 13.5H21.75V9H22.5ZM17.25 0C18.8906 0 20.25 1.35938 20.25 3V21C20.25 22.6875 18.8906 24 17.25 24H3.75C2.0625 24 0.75 22.6875 0.75 21V3C0.75 1.35938 2.0625 0 3.75 0H17.25ZM18 21V3C18 2.625 17.625 2.25 17.25 2.25H3.75C3.32812 2.25 3 2.625 3 3V21C3 21.4219 3.32812 21.75 3.75 21.75H17.25C17.625 21.75 18 21.4219 18 21Z" fill="#CC4744"/>
</svg>
