<?xml version="1.0" encoding="UTF-8" standalone="no"?>

<svg width="100%" height="100%" viewBox="0 0 500 167" version="1.1" xmlns="http://www.w3.org/2000/svg"
    xmlns:xlink="http://www.w3.org/1999/xlink" xml:space="preserve" xmlns:serif="http://www.serif.com/"
    style="fill-rule:evenodd;clip-rule:evenodd;stroke-linejoin:round;stroke-miterlimit:2;">
    <g transform="matrix(4.16667,0,0,4.16667,0,0)">
        <path
            d="M24.769,20.301C24.743,17.55 27.021,16.212 27.125,16.149C25.836,14.269 23.836,14.011 23.134,13.991C21.455,13.815 19.827,14.996 18.971,14.996C18.099,14.996 16.781,14.009 15.362,14.038C13.536,14.066 11.827,15.124 10.89,16.766C8.956,20.114 10.398,25.036 12.251,27.742C13.178,29.068 14.261,30.548 15.678,30.496C17.065,30.438 17.584,29.611 19.258,29.611C20.917,29.611 21.402,30.496 22.849,30.462C24.337,30.438 25.275,29.13 26.169,27.792C27.24,26.273 27.67,24.777 27.688,24.7C27.653,24.688 24.797,23.599 24.769,20.301Z"
            style="fill:white;fill-rule:nonzero;" />
        <path
            d="M22.037,12.211C22.782,11.278 23.293,10.009 23.151,8.721C22.071,8.769 20.721,9.467 19.944,10.38C19.256,11.185 18.641,12.503 18.8,13.742C20.013,13.832 21.258,13.13 22.037,12.211Z"
            style="fill:white;fill-rule:nonzero;" />
        <path
            d="M38.059,25.591L41.811,25.591L39.961,20.144L39.909,20.144L38.059,25.591ZM42.302,27.14L37.568,27.14L36.432,30.497L34.427,30.497L38.91,18.079L40.993,18.079L45.477,30.497L43.438,30.497L42.302,27.14Z"
            style="fill:white;fill-rule:nonzero;" />
        <path
            d="M53.249,25.97C53.249,24.137 52.302,22.932 50.857,22.932C49.437,22.932 48.482,24.163 48.482,25.97C48.482,27.794 49.437,29.016 50.857,29.016C52.302,29.016 53.249,27.82 53.249,25.97ZM55.159,25.97C55.159,28.784 53.653,30.591 51.381,30.591C50.091,30.591 49.066,30.014 48.532,29.007L48.489,29.007L48.489,33.492L46.631,33.492L46.631,21.443L48.43,21.443L48.43,22.949L48.464,22.949C48.981,21.977 50.082,21.348 51.347,21.348C53.645,21.348 55.159,23.165 55.159,25.97Z"
            style="fill:white;fill-rule:nonzero;" />
        <path
            d="M63.214,25.97C63.214,24.137 62.267,22.932 60.821,22.932C59.401,22.932 58.446,24.163 58.446,25.97C58.446,27.794 59.401,29.016 60.821,29.016C62.267,29.016 63.214,27.82 63.214,25.97ZM65.124,25.97C65.124,28.784 63.618,30.591 61.346,30.591C60.056,30.591 59.031,30.014 58.497,29.007L58.454,29.007L58.454,33.492L56.596,33.492L56.596,21.443L58.395,21.443L58.395,22.949L58.429,22.949C58.945,21.977 60.047,21.348 61.312,21.348C63.609,21.348 65.124,23.165 65.124,25.97Z"
            style="fill:white;fill-rule:nonzero;" />
        <path
            d="M71.71,27.037C71.848,28.268 73.044,29.077 74.679,29.077C76.245,29.077 77.372,28.268 77.372,27.158C77.372,26.194 76.692,25.617 75.083,25.221L73.474,24.833C71.193,24.283 70.135,23.216 70.135,21.486C70.135,19.343 72.002,17.872 74.653,17.872C77.277,17.872 79.076,19.343 79.137,21.486L77.261,21.486C77.148,20.247 76.124,19.498 74.627,19.498C73.13,19.498 72.106,20.255 72.106,21.357C72.106,22.235 72.76,22.751 74.36,23.147L75.729,23.483C78.276,24.085 79.335,25.109 79.335,26.925C79.335,29.248 77.484,30.704 74.541,30.704C71.787,30.704 69.928,29.283 69.808,27.037L71.71,27.037Z"
            style="fill:white;fill-rule:nonzero;" />
        <path
            d="M83.346,19.3L83.346,21.443L85.067,21.443L85.067,22.915L83.346,22.915L83.346,27.906C83.346,28.681 83.69,29.042 84.447,29.042C84.637,29.042 84.939,29.016 85.059,28.999L85.059,30.462C84.853,30.514 84.44,30.548 84.026,30.548C82.193,30.548 81.479,29.86 81.479,28.104L81.479,22.915L80.162,22.915L80.162,21.443L81.479,21.443L81.479,19.3L83.346,19.3Z"
            style="fill:white;fill-rule:nonzero;" />
        <path
            d="M92.76,25.97C92.76,24.016 91.864,22.863 90.358,22.863C88.853,22.863 87.958,24.025 87.958,25.97C87.958,27.932 88.853,29.077 90.358,29.077C91.864,29.077 92.76,27.932 92.76,25.97ZM86.065,25.97C86.065,23.122 87.742,21.332 90.358,21.332C92.983,21.332 94.653,23.122 94.653,25.97C94.653,28.827 92.992,30.609 90.358,30.609C87.726,30.609 86.065,28.827 86.065,25.97Z"
            style="fill:white;fill-rule:nonzero;" />
        <path
            d="M96.186,21.443L97.958,21.443L97.958,22.984L98.001,22.984C98.285,21.959 99.111,21.348 100.179,21.348C100.446,21.348 100.669,21.383 100.816,21.417L100.816,23.156C100.669,23.095 100.342,23.043 99.981,23.043C98.784,23.043 98.044,23.853 98.044,25.126L98.044,30.497L96.186,30.497L96.186,21.443Z"
            style="fill:white;fill-rule:nonzero;" />
        <path
            d="M103.102,25.135L107.628,25.135C107.585,23.749 106.699,22.837 105.408,22.837C104.126,22.837 103.197,23.767 103.102,25.135ZM109.384,27.837C109.134,29.481 107.534,30.609 105.486,30.609C102.852,30.609 101.217,28.844 101.217,26.013C101.217,23.173 102.861,21.332 105.408,21.332C107.913,21.332 109.488,23.052 109.488,25.797L109.488,26.434L103.093,26.434L103.093,26.546C103.093,28.095 104.066,29.111 105.529,29.111C106.561,29.111 107.371,28.621 107.62,27.837L109.384,27.837Z"
            style="fill:white;fill-rule:nonzero;" />
        <path
            d="M36.597,13.854L37.722,13.854C38.97,13.854 39.69,13.077 39.69,11.708C39.69,10.36 38.959,9.575 37.722,9.575L36.597,9.575L36.597,13.854ZM37.826,8.731C39.595,8.731 40.633,9.819 40.633,11.696C40.633,13.603 39.603,14.698 37.826,14.698L35.67,14.698L35.67,8.731L37.826,8.731Z"
            style="fill:white;fill-rule:nonzero;" />
        <path
            d="M45.013,12.445C45.013,11.469 44.575,10.898 43.805,10.898C43.033,10.898 42.598,11.469 42.598,12.445C42.598,13.429 43.033,13.995 43.805,13.995C44.575,13.995 45.013,13.425 45.013,12.445ZM41.68,12.445C41.68,10.993 42.491,10.108 43.805,10.108C45.117,10.108 45.927,10.993 45.927,12.445C45.927,13.904 45.121,14.785 43.805,14.785C42.487,14.785 41.68,13.904 41.68,12.445Z"
            style="fill:white;fill-rule:nonzero;" />
        <path
            d="M51.573,14.698L50.651,14.698L49.72,11.382L49.65,11.382L48.723,14.698L47.81,14.698L46.569,10.195L47.47,10.195L48.277,13.631L48.343,13.631L49.269,10.195L50.122,10.195L51.047,13.631L51.118,13.631L51.92,10.195L52.809,10.195L51.573,14.698Z"
            style="fill:white;fill-rule:nonzero;" />
        <path
            d="M53.853,10.195L54.709,10.195L54.709,10.911L54.775,10.911C54.994,10.41 55.441,10.108 56.119,10.108C57.124,10.108 57.677,10.712 57.677,11.783L57.677,14.698L56.789,14.698L56.789,12.006C56.789,11.283 56.474,10.923 55.817,10.923C55.16,10.923 54.742,11.361 54.742,12.064L54.742,14.698L53.853,14.698L53.853,10.195Z"
            style="fill:white;fill-rule:nonzero;" />
        <rect x="59.093" y="8.438" width="0.889" height="6.26" style="fill:white;fill-rule:nonzero;" />
        <path
            d="M64.55,12.445C64.55,11.469 64.112,10.898 63.342,10.898C62.57,10.898 62.135,11.469 62.135,12.445C62.135,13.429 62.57,13.995 63.342,13.995C64.112,13.995 64.55,13.425 64.55,12.445ZM61.217,12.445C61.217,10.993 62.028,10.108 63.342,10.108C64.654,10.108 65.465,10.993 65.465,12.445C65.465,13.904 64.658,14.785 63.342,14.785C62.024,14.785 61.217,13.904 61.217,12.445Z"
            style="fill:white;fill-rule:nonzero;" />
        <path
            d="M69.295,13.04L69.295,12.664L68.195,12.734C67.575,12.775 67.294,12.986 67.294,13.383C67.294,13.789 67.646,14.024 68.129,14.024C68.799,14.024 69.295,13.598 69.295,13.04ZM66.4,13.425C66.4,12.614 67.004,12.147 68.075,12.081L69.295,12.01L69.295,11.622C69.295,11.146 68.981,10.877 68.373,10.877C67.877,10.877 67.533,11.06 67.435,11.378L66.574,11.378C66.665,10.604 67.393,10.108 68.414,10.108C69.543,10.108 70.18,10.67 70.18,11.622L70.18,14.698L69.324,14.698L69.324,14.065L69.254,14.065C68.985,14.516 68.493,14.772 67.901,14.772C67.033,14.772 66.4,14.248 66.4,13.425Z"
            style="fill:white;fill-rule:nonzero;" />
        <path
            d="M72.266,12.445C72.266,13.4 72.716,13.975 73.469,13.975C74.218,13.975 74.681,13.392 74.681,12.449C74.681,11.51 74.213,10.919 73.469,10.919C72.721,10.919 72.266,11.498 72.266,12.445ZM71.348,12.445C71.348,11.022 72.079,10.121 73.217,10.121C73.833,10.121 74.354,10.414 74.598,10.911L74.664,10.911L74.664,8.438L75.553,8.438L75.553,14.698L74.701,14.698L74.701,13.987L74.631,13.987C74.362,14.479 73.837,14.772 73.217,14.772C72.071,14.772 71.348,13.871 71.348,12.445Z"
            style="fill:white;fill-rule:nonzero;" />
        <path
            d="M82.563,12.445C82.563,11.469 82.124,10.898 81.355,10.898C80.582,10.898 80.148,11.469 80.148,12.445C80.148,13.429 80.582,13.995 81.355,13.995C82.124,13.995 82.563,13.425 82.563,12.445ZM79.23,12.445C79.23,10.993 80.04,10.108 81.355,10.108C82.666,10.108 83.477,10.993 83.477,12.445C83.477,13.904 82.67,14.785 81.355,14.785C80.036,14.785 79.23,13.904 79.23,12.445Z"
            style="fill:white;fill-rule:nonzero;" />
        <path
            d="M84.669,10.195L85.524,10.195L85.524,10.911L85.591,10.911C85.81,10.41 86.257,10.108 86.935,10.108C87.94,10.108 88.493,10.712 88.493,11.783L88.493,14.698L87.605,14.698L87.605,12.006C87.605,11.283 87.29,10.923 86.633,10.923C85.976,10.923 85.558,11.361 85.558,12.064L85.558,14.698L84.669,14.698L84.669,10.195Z"
            style="fill:white;fill-rule:nonzero;" />
        <path
            d="M93.515,9.074L93.515,10.216L94.49,10.216L94.49,10.964L93.515,10.964L93.515,13.28C93.515,13.751 93.709,13.958 94.151,13.958C94.288,13.958 94.366,13.95 94.49,13.937L94.49,14.678C94.346,14.702 94.18,14.723 94.007,14.723C93.019,14.723 92.625,14.375 92.625,13.507L92.625,10.964L91.91,10.964L91.91,10.216L92.625,10.216L92.625,9.074L93.515,9.074Z"
            style="fill:white;fill-rule:nonzero;" />
        <path
            d="M95.704,8.438L96.585,8.438L96.585,10.919L96.655,10.919C96.874,10.414 97.35,10.112 98.028,10.112C98.987,10.112 99.579,10.72 99.579,11.791L99.579,14.698L98.69,14.698L98.69,12.01C98.69,11.291 98.355,10.927 97.727,10.927C96.998,10.927 96.593,11.386 96.593,12.068L96.593,14.698L95.704,14.698L95.704,8.438Z"
            style="fill:white;fill-rule:nonzero;" />
        <path
            d="M101.635,12.031L103.91,12.031C103.889,11.324 103.459,10.865 102.801,10.865C102.144,10.865 101.685,11.328 101.635,12.031ZM104.761,13.482C104.559,14.289 103.839,14.785 102.81,14.785C101.52,14.785 100.73,13.9 100.73,12.461C100.73,11.022 101.537,10.108 102.806,10.108C104.059,10.108 104.815,10.964 104.815,12.378L104.815,12.688L101.635,12.688L101.635,12.738C101.665,13.528 102.124,14.028 102.834,14.028C103.373,14.028 103.741,13.834 103.906,13.482L104.761,13.482Z"
            style="fill:white;fill-rule:nonzero;" />
    </g>
</svg>