<svg width="21" height="16" viewBox="0 0 21 16" fill="none" xmlns="http://www.w3.org/2000/svg">
<g clip-path="url(#clip0_96_824)">
<rect x="0.5" y="0.5" width="20" height="15" rx="2" fill="white"/>
<mask id="mask0_96_824" style="mask-type:luminance" maskUnits="userSpaceOnUse" x="0" y="0" width="21" height="16">
<rect x="0.5" y="0.5" width="20" height="15" fill="white"/>
</mask>
<g mask="url(#mask0_96_824)">
<path fill-rule="evenodd" clip-rule="evenodd" d="M0.5 0.5H20.5V15.5H0.5V0.5Z" fill="#2E42A5"/>
<rect x="0.5" y="0.5" width="11" height="9" fill="#2E42A5"/>
<mask id="mask1_96_824" style="mask-type:luminance" maskUnits="userSpaceOnUse" x="0" y="0" width="12" height="10">
<rect x="0.5" y="0.5" width="11" height="9" fill="white"/>
</mask>
<g mask="url(#mask1_96_824)">
<path d="M-0.75293 8.62482L1.72266 9.71057L11.8059 1.6804L13.1117 0.0669403L10.4644 -0.295949L6.35172 3.16448L3.04141 5.496L-0.75293 8.62482Z" fill="#F7FCFF"/>
<path d="M-0.414062 9.38555L0.847138 10.0156L12.6428 -0.0829468H10.8719L-0.414062 9.38555Z" fill="#F50100"/>
<path d="M13.0024 8.62493L10.8054 10.0206L0.4436 1.6805L-0.86222 0.0670462L1.78507 -0.295844L5.89779 3.16459L9.2081 5.49611L13.0024 8.62493Z" fill="#F7FCFF"/>
<path d="M12.918 9.17082L11.6568 9.8009L6.63406 5.47718L5.14494 4.9941L-0.98787 0.0725183H0.783002L6.91237 4.87728L8.54046 5.45655L12.918 9.17082Z" fill="#F50100"/>
<mask id="path-11-outside-1_96_824" maskUnits="userSpaceOnUse" x="-0.5" y="-0.5" width="13" height="11" fill="black">
<rect fill="white" x="-0.5" y="-0.5" width="13" height="11"/>
<path fill-rule="evenodd" clip-rule="evenodd" d="M6.5 0.5H5.5V4.5H0.5V5.5H5.5V9.5H6.5V5.5H11.5V4.5H6.5V0.5Z"/>
</mask>
<path fill-rule="evenodd" clip-rule="evenodd" d="M6.5 0.5H5.5V4.5H0.5V5.5H5.5V9.5H6.5V5.5H11.5V4.5H6.5V0.5Z" fill="#F50100"/>
<path d="M5.5 0.5V-0.4375H4.5625V0.5H5.5ZM6.5 0.5H7.4375V-0.4375H6.5V0.5ZM5.5 4.5V5.4375H6.4375V4.5H5.5ZM0.5 4.5V3.5625H-0.4375V4.5H0.5ZM0.5 5.5H-0.4375V6.4375H0.5V5.5ZM5.5 5.5H6.4375V4.5625H5.5V5.5ZM5.5 9.5H4.5625V10.4375H5.5V9.5ZM6.5 9.5V10.4375H7.4375V9.5H6.5ZM6.5 5.5V4.5625H5.5625V5.5H6.5ZM11.5 5.5V6.4375H12.4375V5.5H11.5ZM11.5 4.5H12.4375V3.5625H11.5V4.5ZM6.5 4.5H5.5625V5.4375H6.5V4.5ZM5.5 1.4375H6.5V-0.4375H5.5V1.4375ZM6.4375 4.5V0.5H4.5625V4.5H6.4375ZM0.5 5.4375H5.5V3.5625H0.5V5.4375ZM1.4375 5.5V4.5H-0.4375V5.5H1.4375ZM5.5 4.5625H0.5V6.4375H5.5V4.5625ZM6.4375 9.5V5.5H4.5625V9.5H6.4375ZM6.5 8.5625H5.5V10.4375H6.5V8.5625ZM5.5625 5.5V9.5H7.4375V5.5H5.5625ZM11.5 4.5625H6.5V6.4375H11.5V4.5625ZM10.5625 4.5V5.5H12.4375V4.5H10.5625ZM6.5 5.4375H11.5V3.5625H6.5V5.4375ZM5.5625 0.5V4.5H7.4375V0.5H5.5625Z" fill="#F7FCFF" mask="url(#path-11-outside-1_96_824)"/>
</g>
</g>
<g clip-path="url(#clip1_96_824)">
<path d="M6.41979 12.7784L5.59974 13.5362L5.68095 12.4226L4.57717 12.2539L5.49848 11.6231L4.94212 10.655L6.00977 10.9819L6.41979 9.94336L6.82981 10.9819L7.89745 10.655L7.34109 11.6231L8.2624 12.2539L7.15862 12.4226L7.23983 13.5362L6.41979 12.7784Z" fill="#F7FCFF"/>
<path d="M13.74 8.79662L13.1933 9.30184L13.2474 8.55941L12.5116 8.44699L13.1258 8.02643L12.7549 7.38102L13.4666 7.59901L13.74 6.90662L14.0133 7.59901L14.7251 7.38102L14.3542 8.02643L14.9684 8.44699L14.2325 8.55941L14.2867 9.30184L13.74 8.79662Z" fill="#F7FCFF"/>
<path d="M15.0198 3.46336L14.4731 3.96859L14.5272 3.22616L13.7914 3.11374L14.4056 2.69318L14.0347 2.04777L14.7464 2.26575L15.0198 1.57336L15.2931 2.26575L16.0049 2.04777L15.634 2.69318L16.2482 3.11374L15.5123 3.22616L15.5665 3.96859L15.0198 3.46336Z" fill="#F7FCFF"/>
<path d="M18.22 6.12999L17.6733 6.63521L17.7274 5.89279L16.9916 5.78037L17.6058 5.3598L17.2349 4.71439L17.9466 4.93238L18.22 4.23999L18.4933 4.93238L19.2051 4.71439L18.8342 5.3598L19.4484 5.78037L18.7125 5.89279L18.7667 6.63521L18.22 6.12999Z" fill="#F7FCFF"/>
<path d="M15.6599 13.7966L15.1132 14.3018L15.1673 13.5594L14.4315 13.447L15.0457 13.0264L14.6748 12.381L15.3866 12.599L15.6599 11.9066L15.9332 12.599L16.645 12.381L16.2741 13.0264L16.8883 13.447L16.1525 13.5594L16.2066 14.3018L15.6599 13.7966Z" fill="#F7FCFF"/>
<path d="M17.9001 9.63918L17.3446 9.9312L17.4507 9.31269L17.0013 8.87466L17.6223 8.78442L17.9001 8.22168L18.1778 8.78442L18.7988 8.87466L18.3495 9.31269L18.4555 9.9312L17.9001 9.63918Z" fill="#F7FCFF"/>
</g>
</g>
<rect x="0.75" y="0.75" width="19.5" height="14.5" rx="1.75" stroke="black" stroke-opacity="0.08" stroke-width="0.5"/>
<defs>
<clipPath id="clip0_96_824">
<rect x="0.5" y="0.5" width="20" height="15" rx="2" fill="white"/>
</clipPath>
<clipPath id="clip1_96_824">
<rect width="15" height="13" fill="white" transform="translate(4.5 1.5)"/>
</clipPath>
</defs>
</svg>
