<svg width="22" height="24" viewBox="0 0 22 24" fill="none" xmlns="http://www.w3.org/2000/svg">
<path d="M5.75 7.5V5.25C5.75 2.39062 8.09375 0 11 0C13.8594 0 16.25 2.39062 16.25 5.25V7.5H19.25C20.4688 7.5 21.5 8.53125 21.5 9.75V19.5C21.5 21.9844 19.4844 24 17 24H5C2.46875 24 0.5 21.9844 0.5 19.5V9.75C0.5 8.53125 1.48438 7.5 2.75 7.5H5.75ZM8 7.5H14V5.25C14 3.60938 12.6406 2.25 11 2.25C9.3125 2.25 8 3.60938 8 5.25V7.5ZM2.75 9.75V19.5C2.75 20.7656 3.73438 21.75 5 21.75H17C18.2188 21.75 19.25 20.7656 19.25 19.5V9.75H16.25V12.375C16.25 13.0312 15.7344 13.5 15.125 13.5C14.4688 13.5 14 13.0312 14 12.375V9.75H8V12.375C8 13.0312 7.48438 13.5 6.875 13.5C6.21875 13.5 5.75 13.0312 5.75 12.375V9.75H2.75Z" fill="#CC4744"/>
</svg>
