<svg width="22" height="24" viewBox="0 0 22 24" fill="none" xmlns="http://www.w3.org/2000/svg">
<path d="M6.5 16.5C6.875 16.5 7.25 16.875 7.25 17.25V18.75C7.25 19.1719 6.875 19.5 6.5 19.5H5C4.57812 19.5 4.25 19.1719 4.25 18.75V17.25C4.25 16.875 4.57812 16.5 5 16.5H6.5ZM5 7.5C4.57812 7.5 4.25 7.17188 4.25 6.75V5.25C4.25 4.875 4.57812 4.5 5 4.5H6.5C6.875 4.5 7.25 4.875 7.25 5.25V6.75C7.25 7.17188 6.875 7.5 6.5 7.5H5ZM16.625 16.875C17.2344 16.875 17.75 17.3906 17.75 18C17.75 18.6562 17.2344 19.125 16.625 19.125H9.875C9.21875 19.125 8.75 18.6562 8.75 18C8.75 17.3906 9.21875 16.875 9.875 16.875H16.625ZM8.51562 10.3594C8.79688 10.6406 8.79688 11.1562 8.51562 11.4375L6.26562 13.6875C6.125 13.8281 5.9375 13.875 5.75 13.875C5.51562 13.875 5.32812 13.8281 5.1875 13.6875L4.0625 12.5625C3.78125 12.2812 3.78125 11.7656 4.0625 11.4844C4.34375 11.2031 4.85938 11.2031 5.14062 11.4844L5.75 12.0938L7.4375 10.3594C7.71875 10.0781 8.23438 10.0781 8.51562 10.3594ZM16.625 10.875C17.2344 10.875 17.75 11.3906 17.75 12C17.75 12.6562 17.2344 13.125 16.625 13.125H11.375C10.7188 13.125 10.25 12.6562 10.25 12C10.25 11.3906 10.7188 10.875 11.375 10.875H16.625ZM18.5 0C20.1406 0 21.5 1.35938 21.5 3V21C21.5 22.6875 20.1406 24 18.5 24H3.5C1.8125 24 0.5 22.6875 0.5 21V3C0.5 1.35938 1.8125 0 3.5 0H18.5ZM19.25 21V3C19.25 2.625 18.875 2.25 18.5 2.25H3.5C3.07812 2.25 2.75 2.625 2.75 3V21C2.75 21.4219 3.07812 21.75 3.5 21.75H18.5C18.875 21.75 19.25 21.4219 19.25 21ZM16.625 4.875C17.2344 4.875 17.75 5.39062 17.75 6C17.75 6.65625 17.2344 7.125 16.625 7.125H9.875C9.21875 7.125 8.75 6.65625 8.75 6C8.75 5.39062 9.21875 4.875 9.875 4.875H16.625Z" fill="#CC4744"/>
</svg>
