<svg width="18" height="18" viewBox="0 0 18 18" fill="none" xmlns="http://www.w3.org/2000/svg">
<path d="M9.81281 12.5266C9.80947 12.5117 9.80439 12.4975 9.79705 12.4846L8.97872 10.3245C8.92143 10.1805 8.76594 10.0797 8.59 10.0797H8.18084V7.55963C8.18084 7.36163 7.99671 7.19962 7.77167 7.19962H6.95334V0.359417C6.95334 0.0711224 6.56295 -0.106933 6.29868 0.0713745L3.02535 2.23145C2.92306 2.29985 2.86168 2.40785 2.86168 2.51946V7.19962H2.04335C1.81831 7.19962 1.63418 7.36163 1.63418 7.55963V10.0797H1.22502C1.04908 10.0797 0.893591 10.1805 0.836304 10.3245L0.0179716 12.4846C0.0117809 12.4955 0.00980489 12.5157 0.00980489 12.5278C-0.00248236 12.5746 -0.00248265 12.6214 0.00570885 12.6754L1.23321 17.7156C1.27412 17.8812 1.44189 18 1.63418 18H8.18084C8.37313 18 8.5409 17.8812 8.58181 17.7156C8.58181 17.7156 9.80931 12.6754 9.80931 12.6682C9.81679 12.6255 9.82317 12.5727 9.81281 12.5266ZM3.68001 2.69946L6.13501 1.0794V7.19962H3.68001V2.69946ZM2.45251 7.91964H7.36251V10.0797H2.45251V7.91964ZM1.5196 10.7997H8.29542L8.83959 12.2398H0.975428L1.5196 10.7997ZM7.84941 17.28H1.96561L0.914045 12.9598H8.90097L7.84941 17.28Z" fill="#333333"/>
<path d="M14.3173 7.19965C12.2868 7.19965 10.6348 8.65323 10.6348 10.4398V17.64C10.6348 17.8388 10.818 18 11.0439 18H17.5906C17.8165 18 17.9998 17.8388 17.9998 17.64V10.4398C17.9998 8.65323 16.3477 7.19965 14.3173 7.19965ZM11.4531 15.1199H17.1814V15.84H11.4531V15.1199ZM14.3173 7.91967C15.8966 7.91967 17.1814 9.05016 17.1814 10.4398V14.3999H11.4531V10.4398C11.4531 9.05016 12.7379 7.91967 14.3173 7.91967ZM17.1814 17.28H11.4531V16.56H17.1814V17.28Z" fill="#333333"/>
</svg>
