<svg width="30" height="24" viewBox="0 0 30 24" fill="none" xmlns="http://www.w3.org/2000/svg">
<path d="M16.5 1.5V2.34375C19.875 2.90625 22.5 5.85938 22.5 9.375V10.9688C22.5 13.0781 23.2031 15.1406 24.5156 16.8281L25.2188 17.6719C25.5 18.0469 25.5469 18.5156 25.3594 18.8906C25.1719 19.2656 24.7969 19.5 24.375 19.5H5.625C5.15625 19.5 4.78125 19.2656 4.59375 18.8906C4.40625 18.5156 4.45312 18.0469 4.73438 17.6719L5.4375 16.8281C6.75 15.1406 7.5 13.0781 7.5 10.9688V9.375C7.5 5.85938 10.0781 2.90625 13.5 2.34375V1.5C13.5 0.703125 14.1562 0 15 0C15.7969 0 16.5 0.703125 16.5 1.5ZM14.625 4.5C11.9062 4.5 9.75 6.70312 9.75 9.375V10.9688C9.75 13.2188 9.09375 15.375 7.875 17.25H22.0781C20.8594 15.375 20.25 13.2188 20.25 10.9688V9.375C20.25 6.70312 18.0469 4.5 15.375 4.5H14.625ZM18 21C18 21.7969 17.6719 22.5938 17.1094 23.1562C16.5469 23.7188 15.75 24 15 24C14.2031 24 13.4062 23.7188 12.8438 23.1562C12.2812 22.5938 12 21.7969 12 21H18ZM0 9.375C0 8.76562 0.46875 8.25 1.125 8.25H4.875C5.48438 8.25 6 8.76562 6 9.375C6 10.0312 5.48438 10.5 4.875 10.5H1.125C0.46875 10.5 0 10.0312 0 9.375ZM28.875 8.25C29.4844 8.25 30 8.76562 30 9.375C30 10.0312 29.4844 10.5 28.875 10.5H25.125C24.4688 10.5 24 10.0312 24 9.375C24 8.76562 24.4688 8.25 25.125 8.25H28.875ZM27.9844 1.03125C28.2656 1.59375 28.0312 2.25 27.4688 2.53125L24.4688 4.03125C23.9062 4.3125 23.25 4.07812 22.9688 3.51562C22.6875 2.95312 22.9219 2.29688 23.4844 2.01562L26.4844 0.515625C27.0469 0.234375 27.7031 0.46875 27.9844 1.03125ZM2.48438 2.53125C1.92188 2.25 1.6875 1.59375 1.96875 1.03125C2.25 0.46875 2.90625 0.234375 3.46875 0.515625L6.46875 2.01562C7.03125 2.29688 7.26562 2.95312 6.98438 3.51562C6.70312 4.07812 6.04688 4.3125 5.48438 4.03125L2.48438 2.53125Z" fill="#CC4744"/>
</svg>
