<svg width="24" height="24" viewBox="0 0 24 24" fill="none" xmlns="http://www.w3.org/2000/svg">
<path d="M10.5 0C11.1094 0 11.625 0.515625 11.625 1.125V3H16.875V1.125C16.875 0.515625 17.3438 0 18 0C18.6094 0 19.125 0.515625 19.125 1.125V3H21C22.6406 3 24 4.35938 24 6V16.5C24 18.1875 22.6406 19.5 21 19.5H7.5C5.8125 19.5 4.5 18.1875 4.5 16.5V6C4.5 4.35938 5.8125 3 7.5 3H9.375V1.125C9.375 0.515625 9.84375 0 10.5 0ZM6.75 16.5C6.75 16.9219 7.07812 17.25 7.5 17.25H21C21.375 17.25 21.75 16.9219 21.75 16.5V9H6.75V16.5ZM2.25 18.375C2.25 20.25 3.75 21.75 5.625 21.75H18.375C18.9844 21.75 19.5 22.2656 19.5 22.875C19.5 23.5312 18.9844 24 18.375 24H5.625C2.48438 24 0 21.5156 0 18.375V8.625C0 8.01562 0.46875 7.5 1.125 7.5C1.73438 7.5 2.25 8.01562 2.25 8.625V18.375Z" fill="#CC4744"/>
</svg>
