<svg width="24" height="24" viewBox="0 0 24 24" fill="none" xmlns="http://www.w3.org/2000/svg">
<path d="M6.375 12C6.375 12.6562 5.85938 13.125 5.25 13.125C4.59375 13.125 4.125 12.6562 4.125 12C4.125 11.3906 4.59375 10.875 5.25 10.875C5.85938 10.875 6.375 11.3906 6.375 12ZM8.625 12C8.625 11.3906 9.09375 10.875 9.75 10.875C10.3594 10.875 10.875 11.3906 10.875 12C10.875 12.6562 10.3594 13.125 9.75 13.125C9.09375 13.125 8.625 12.6562 8.625 12ZM8.625 15.75C8.625 16.4062 8.10938 16.875 7.5 16.875C6.84375 16.875 6.375 16.4062 6.375 15.75C6.375 15.1406 6.84375 14.625 7.5 14.625C8.10938 14.625 8.625 15.1406 8.625 15.75ZM13.125 12C13.125 11.3906 13.5938 10.875 14.25 10.875C14.8594 10.875 15.375 11.3906 15.375 12C15.375 12.6562 14.8594 13.125 14.25 13.125C13.5938 13.125 13.125 12.6562 13.125 12ZM13.125 15.75C13.125 16.4062 12.6094 16.875 12 16.875C11.3438 16.875 10.875 16.4062 10.875 15.75C10.875 15.1406 11.3438 14.625 12 14.625C12.6094 14.625 13.125 15.1406 13.125 15.75ZM17.625 12C17.625 11.3906 18.0938 10.875 18.75 10.875C19.3594 10.875 19.875 11.3906 19.875 12C19.875 12.6562 19.3594 13.125 18.75 13.125C18.0938 13.125 17.625 12.6562 17.625 12ZM17.625 15.75C17.625 16.4062 17.1094 16.875 16.5 16.875C15.8438 16.875 15.375 16.4062 15.375 15.75C15.375 15.1406 15.8438 14.625 16.5 14.625C17.1094 14.625 17.625 15.1406 17.625 15.75ZM13.5 0C14.2969 0 15 0.703125 15 1.5V4.5C15 5.34375 14.2969 6 13.5 6H9.75V7.5H19.875C21.375 7.5 22.6406 8.625 22.8281 10.0781L23.9531 17.8125C23.9531 17.9531 24 18.0938 24 18.2344V21C24 22.6875 22.6406 24 21 24H3C1.3125 24 0 22.6875 0 21V18.2344C0 18.0938 0 17.9531 0 17.8125L1.125 10.0781C1.3125 8.625 2.57812 7.5 4.07812 7.5H6.75V6H3C2.15625 6 1.5 5.34375 1.5 4.5V1.5C1.5 0.703125 2.15625 0 3 0H13.5ZM4.5 2.25C4.07812 2.25 3.75 2.625 3.75 3C3.75 3.42188 4.07812 3.75 4.5 3.75H12C12.375 3.75 12.75 3.42188 12.75 3C12.75 2.625 12.375 2.25 12 2.25H4.5ZM3 21.75H21C21.375 21.75 21.75 21.4219 21.75 21V20.25H2.25V21C2.25 21.4219 2.57812 21.75 3 21.75ZM19.875 9.75H4.07812C3.70312 9.75 3.375 10.0312 3.32812 10.4062L2.25 18H21.7031L20.625 10.4062C20.5781 10.0312 20.25 9.75 19.875 9.75Z" fill="#CC4744"/>
</svg>
