<svg width="24" height="22" viewBox="0 0 24 22" fill="none" xmlns="http://www.w3.org/2000/svg">
<path d="M2.25 18.125C2.25 18.7812 2.71875 19.25 3.375 19.25H22.875C23.4844 19.25 24 19.7656 24 20.375C24 21.0312 23.4844 21.5 22.875 21.5H3.375C1.5 21.5 0 20 0 18.125V1.625C0 1.01562 0.46875 0.5 1.125 0.5C1.73438 0.5 2.25 1.01562 2.25 1.625V18.125ZM15.75 13.2969C15.3281 13.7656 14.625 13.7656 14.2031 13.2969L10.4531 9.59375L6.75 13.2969C6.32812 13.7656 5.625 13.7656 5.20312 13.2969C4.73438 12.875 4.73438 12.1719 5.20312 11.7031L9.70312 7.20312C9.89062 7.01562 10.1719 6.875 10.4531 6.875C10.7812 6.875 11.0625 7.01562 11.25 7.20312L15 10.9531L20.5781 5.32812C21 4.90625 21.7031 4.90625 22.125 5.32812C22.5938 5.79688 22.5938 6.5 22.125 6.92188L15.75 13.2969Z" fill="#CC4744"/>
</svg>
