<svg width="30" height="24" viewBox="0 0 30 24" fill="none" xmlns="http://www.w3.org/2000/svg">
<path d="M19.4062 1.47655L12.6562 23.2266C12.4688 23.7891 11.8594 24.1172 11.25 23.9297C10.6875 23.7422 10.3594 23.1328 10.5469 22.5234L17.2969 0.773426C17.4844 0.210926 18.0938 -0.117199 18.7031 0.0703007C19.2656 0.257801 19.5938 0.867176 19.4062 1.47655ZM23.625 5.55468L29.625 11.1797C29.8594 11.3672 30 11.6953 30 11.9766C30 12.3047 29.8594 12.5859 29.625 12.8203L23.625 18.4453C23.1562 18.8672 22.4531 18.8672 22.0312 18.3984C21.6094 17.9297 21.6094 17.2266 22.0781 16.8047L27.1875 11.9766L22.0781 7.1953C21.6094 6.77343 21.6094 6.0703 22.0312 5.60155C22.4531 5.1328 23.1562 5.1328 23.625 5.55468ZM7.875 7.1953L2.76562 11.9766L7.875 16.8047C8.34375 17.2266 8.34375 17.9297 7.92188 18.3984C7.5 18.8672 6.79688 18.8672 6.32812 18.4453L0.328125 12.8203C0.09375 12.5859 0 12.3047 0 11.9766C0 11.6953 0.09375 11.3672 0.328125 11.1797L6.32812 5.55468C6.79688 5.1328 7.5 5.1328 7.92188 5.60155C8.34375 6.0703 8.34375 6.77343 7.875 7.1953Z" fill="#CC4744"/>
</svg>
