<svg width="30" height="34" viewBox="0 0 30 34" fill="none" xmlns="http://www.w3.org/2000/svg">
<path d="M1.8264 16.1795L1.26968 12.9064C2.97177 6.22134 8.54399 1.43412 15.1339 0.992C15.5359 0.965932 15.928 0.965932 16.3281 0.972188C19.7243 1.0212 23.0547 2.27561 25.7176 4.50916C25.8533 4.59258 25.98 4.6906 26.1047 4.7907L26.2174 4.88038C26.6315 5.25368 26.9318 5.55816 27.2221 5.87724L27.3828 6.07432C27.5085 6.22656 27.6272 6.38297 27.724 6.56128C28.1031 7.26721 28.3186 8.01694 28.3665 8.7917C28.4533 10.1973 28.0113 11.5529 27.1214 12.6092C26.2324 13.6665 25.0032 14.2974 23.6573 14.387C22.5838 14.458 21.5232 14.1618 20.5943 13.5268C20.1354 13.2087 19.6256 12.6488 19.416 12.409C18.3615 11.5842 17.0924 11.1827 15.7624 11.264C13.3679 11.4246 11.3675 13.1879 10.7858 15.6529L8.50907 15.2254C8.52104 14.4507 8.33048 13.8511 7.9713 13.361C7.05839 12.116 5.34333 11.8855 4.15206 12.8386C3.85874 13.0742 3.6113 13.3902 3.41775 13.777L1.8274 16.1785L1.8264 16.1795ZM5.80527 9.83027C7.3188 9.83027 8.81636 10.5383 9.80709 11.8866C9.846 11.9376 9.88192 11.9898 9.91684 12.0409C11.2568 10.1994 13.3071 9.00233 15.6138 8.84801C17.5064 8.71662 19.3981 9.32767 20.9156 10.5591L21.0712 10.7114C21.3097 10.9919 21.6779 11.3756 21.8255 11.4799C22.3683 11.8469 22.937 12.0054 23.5097 11.971C24.235 11.922 24.9005 11.581 25.3814 11.0096C25.8613 10.4382 26.1007 9.70618 26.0538 8.94707C26.0279 8.5404 25.9131 8.14103 25.7086 7.75834C25.5699 7.58733 25.5151 7.51851 25.4632 7.44761C25.2985 7.27764 25.0431 7.02008 24.7787 6.774L24.682 6.70205C24.6371 6.66555 24.5942 6.62489 24.5433 6.59569L24.3368 6.45492C22.063 4.52272 19.2075 3.43618 16.2962 3.39343C15.957 3.38718 15.6227 3.38509 15.2805 3.40803C10.9714 3.69687 7.17413 6.17755 4.99712 9.89701C5.26451 9.85217 5.53688 9.82923 5.80726 9.82923L5.80527 9.83027Z" fill="#CC4744"/>
<path d="M16.1227 33.0312C11.5043 33.0312 6.93381 30.8717 3.90875 26.7571C2.15677 24.3723 1.08623 21.5225 0.815849 18.5142L0.803877 18.4005C0.770953 18.0012 0.759978 17.6007 0.753992 17.2003L0.75 16.8427C0.752993 16.4861 0.771951 16.1305 0.797891 15.776C0.870724 14.7864 1.02637 13.8208 1.26083 12.9032L1.35461 12.6529C1.70381 11.9512 2.16775 11.3652 2.73345 10.9116C4.94338 9.13891 8.12209 9.57165 9.8182 11.8803C10.4946 12.8 10.8498 13.9136 10.8488 15.1003C10.8488 15.216 10.8389 15.3547 10.8239 15.4986L10.797 15.6571C10.7361 15.9146 10.6822 16.1722 10.6563 16.4402L10.6184 16.6539C10.6184 16.7217 10.6224 16.7895 10.6253 16.8573L10.6333 17.0919C10.6343 17.1868 10.6303 17.2775 10.6234 17.3682C10.6224 17.3661 10.6224 17.364 10.6214 17.362L10.6383 17.5121C10.6493 17.6393 10.6802 17.7874 10.7072 17.9355L10.7311 18.0689C11.2429 20.9365 13.7033 22.9396 16.4689 22.7717C17.8158 22.681 19.076 22.0751 20.0308 21.0626C20.2303 20.7425 20.4767 20.436 20.78 20.1294C21.6431 19.2629 22.7575 18.7436 23.9198 18.6654C26.6566 18.4767 29.063 20.6727 29.2406 23.5548C29.2905 24.3848 29.1409 25.2117 28.7967 26.0125L28.6859 26.2138C27.793 27.5412 26.7134 28.7174 25.4783 29.7101C22.6897 31.9489 19.3942 33.0312 16.1227 33.0312ZM3.48672 13.6707C3.30913 14.4027 3.1894 15.1722 3.13154 15.9605C3.11058 16.2598 3.09263 16.5632 3.08963 16.8667L3.09363 17.1722C3.09762 17.509 3.10659 17.851 3.13553 18.193L3.1485 18.3255C3.37498 20.8353 4.2809 23.2493 5.7645 25.268C10.1454 31.2262 18.3466 32.3493 24.0515 27.7716C25.0692 26.9552 25.9612 25.9917 26.7035 24.9083C26.8611 24.5079 26.9289 24.1054 26.905 23.7102C26.8102 22.1773 25.5531 21.0095 24.0705 21.1054C23.2863 21.1575 22.7306 21.5621 22.4033 21.8906C22.2098 22.0866 22.0631 22.2712 21.9564 22.4537L21.8047 22.6612C20.4348 24.1721 18.5921 25.0782 16.6196 25.2107C12.6776 25.4745 9.16071 22.5986 8.43337 18.5225L8.41142 18.4078C8.36752 18.1753 8.32762 17.9438 8.30667 17.7092C8.30168 17.7092 8.2897 17.6352 8.28472 17.557C8.27673 17.4224 8.28172 17.3025 8.2907 17.1826L8.28771 16.9699C8.27973 16.7791 8.27374 16.5883 8.28671 16.3974L8.33759 16.1065C8.3775 15.7468 8.44634 15.4162 8.5072 15.1514C8.5092 15.1326 8.5102 15.1138 8.5102 15.0971C8.51119 14.4538 8.32263 13.8563 7.96345 13.3693C7.05354 12.1295 5.34546 11.897 4.16018 12.849C3.89578 13.0617 3.6693 13.337 3.48672 13.6707Z" fill="#CC4744"/>
<path d="M5.56808 17.1274C6.26512 17.1274 6.83018 16.5368 6.83018 15.8083C6.83018 15.0798 6.26512 14.4892 5.56808 14.4892C4.87104 14.4892 4.30598 15.0798 4.30598 15.8083C4.30598 16.5368 4.87104 17.1274 5.56808 17.1274Z" fill="#CC4744"/>
</svg>
