<svg width="28" height="22" viewBox="0 0 28 22" fill="none" xmlns="http://www.w3.org/2000/svg">
<path d="M8.375 14.75C8.98438 14.75 9.5 15.2656 9.5 15.875C9.5 16.5312 8.98438 17 8.375 17H6.125C5.46875 17 5 16.5312 5 15.875C5 15.2656 5.46875 14.75 6.125 14.75H8.375ZM17.375 14.75C17.9844 14.75 18.5 15.2656 18.5 15.875C18.5 16.5312 17.9844 17 17.375 17H12.125C11.4688 17 11 16.5312 11 15.875C11 15.2656 11.4688 14.75 12.125 14.75H17.375ZM24.5 0.5C26.1406 0.5 27.5 1.85938 27.5 3.5V18.5C27.5 20.1875 26.1406 21.5 24.5 21.5H3.5C1.8125 21.5 0.5 20.1875 0.5 18.5V3.5C0.5 1.85938 1.8125 0.5 3.5 0.5H24.5ZM24.5 2.75H3.5C3.07812 2.75 2.75 3.125 2.75 3.5V5H25.25V3.5C25.25 3.125 24.875 2.75 24.5 2.75ZM25.25 9.5H2.75V18.5C2.75 18.9219 3.07812 19.25 3.5 19.25H24.5C24.875 19.25 25.25 18.9219 25.25 18.5V9.5Z" fill="#CC4744"/>
</svg>
