<?xml version="1.0" encoding="UTF-8"?>
<svg id="Layer_1" xmlns="http://www.w3.org/2000/svg" version="1.1" viewBox="0 0 24 24">
  <!-- Generator: Adobe Illustrator 29.7.1, SVG Export Plug-In . SVG Version: 2.1.1 Build 8)  -->
  <path d="M21.8,22.7c.1.1.1.4,0,.5,0,0-.2.1-.2.1s-.2,0-.3-.1l-6.5-6.5-6.5,6.5c0,0-.2.1-.2.1s-.2,0-.2-.1c-.1-.1-.1-.4,0-.5l6.5-6.5-5.7-5.7H2.8v3.9c0,.2-.2.4-.4.4s-.4-.2-.4-.4V1c0-.2.2-.4.4-.4h7.4c2.7,0,5,2.2,5,5s-2.2,5-5,5h-.2l5.2,5.2,6.5-6.5c.1-.1.4-.1.5,0s.1.4,0,.5l-6.5,6.5,6.5,6.5ZM2.8,9.9h7.1c2.3,0,4.2-1.9,4.2-4.2s-1.9-4.2-4.2-4.2H2.8v8.5Z" fill="#CC4744"/>
</svg>