<svg width="18" height="24" viewBox="0 0 18 24" fill="none" xmlns="http://www.w3.org/2000/svg">
<path d="M17.1094 4.40625C17.6719 4.96875 18 5.71875 18 6.51562V21C18 22.6875 16.6406 24 15 24H3C1.3125 24 0 22.6875 0 21V3C0 1.35938 1.3125 0 3 0H11.4844C12.2812 0 13.0312 0.328125 13.5938 0.890625L17.1094 4.40625ZM15.75 21H15.7031V7.5H12C11.1562 7.5 10.5 6.84375 10.5 6V2.29688H3C2.57812 2.29688 2.25 2.625 2.25 3.04688V21C2.25 21.4219 2.57812 21.75 3 21.75H15C15.375 21.75 15.75 21.4219 15.75 21ZM4.5 13.125C4.5 12.5156 4.96875 12 5.625 12H12.375C12.9844 12 13.5 12.5156 13.5 13.125C13.5 13.7812 12.9844 14.25 12.375 14.25H5.625C4.96875 14.25 4.5 13.7812 4.5 13.125ZM12.375 16.5C12.9844 16.5 13.5 17.0156 13.5 17.625C13.5 18.2812 12.9844 18.75 12.375 18.75H5.625C4.96875 18.75 4.5 18.2812 4.5 17.625C4.5 17.0156 4.96875 16.5 5.625 16.5H12.375Z" fill="#CC4744"/>
</svg>
