<svg width="20" height="15" viewBox="0 0 20 15" fill="none" xmlns="http://www.w3.org/2000/svg">
<g clip-path="url(#clip0_40_539)">
<rect width="20" height="15" rx="2" fill="white"/>
<mask id="mask0_40_539" style="mask-type:luminance" maskUnits="userSpaceOnUse" x="0" y="0" width="20" height="15">
<rect width="20" height="15" fill="white"/>
</mask>
<g mask="url(#mask0_40_539)">
<path fillRule="evenodd" clip-rule="evenodd" d="M0 0H20V15H0V0Z" fill="#F7FCFF"/>
<path fillRule="evenodd" clip-rule="evenodd" d="M0 9.16656V10.4166H20V9.16656H0Z" fill="#E31D1C"/>
<path fillRule="evenodd" clip-rule="evenodd" d="M0 11.4584V12.7084H20V11.4584H0Z" fill="#E31D1C"/>
<path fillRule="evenodd" clip-rule="evenodd" d="M0 4.58344V5.83344H20V4.58344H0Z" fill="#E31D1C"/>
<path fillRule="evenodd" clip-rule="evenodd" d="M0 13.75V15H20V13.75H0Z" fill="#E31D1C"/>
<path fillRule="evenodd" clip-rule="evenodd" d="M0 6.875V8.125H20V6.875H0Z" fill="#E31D1C"/>
<path fillRule="evenodd" clip-rule="evenodd" d="M0 0V1.25H20V0H0Z" fill="#E31D1C"/>
<path fillRule="evenodd" clip-rule="evenodd" d="M0 2.29156V3.54156H20V2.29156H0Z" fill="#E31D1C"/>
<rect width="12.5" height="8.125" fill="#2E42A5"/>
<path fillRule="evenodd" clip-rule="evenodd" d="M1.07626 1.83675L0.622585 2.15481L0.775751 1.5888L0.372803 1.23011H0.899107L1.07563 0.768188L1.28261 1.23011H1.73127L1.37874 1.5888L1.51522 2.15481L1.07626 1.83675ZM3.57626 1.83675L3.12258 2.15481L3.27575 1.5888L2.8728 1.23011H3.39911L3.57563 0.768188L3.78261 1.23011H4.23127L3.87875 1.5888L4.01522 2.15481L3.57626 1.83675ZM5.62258 2.15481L6.07626 1.83675L6.51522 2.15481L6.37875 1.5888L6.73127 1.23011H6.28261L6.07563 0.768188L5.89911 1.23011H5.3728L5.77575 1.5888L5.62258 2.15481ZM8.57626 1.83675L8.12258 2.15481L8.27575 1.5888L7.8728 1.23011H8.39911L8.57563 0.768188L8.78261 1.23011H9.23127L8.87875 1.5888L9.01522 2.15481L8.57626 1.83675ZM0.622585 4.65481L1.07626 4.33675L1.51522 4.65481L1.37874 4.0888L1.73127 3.73011H1.28261L1.07563 3.26819L0.899107 3.73011H0.372803L0.775751 4.0888L0.622585 4.65481ZM3.57626 4.33675L3.12258 4.65481L3.27575 4.0888L2.8728 3.73011H3.39911L3.57563 3.26819L3.78261 3.73011H4.23127L3.87875 4.0888L4.01522 4.65481L3.57626 4.33675ZM5.62258 4.65481L6.07626 4.33675L6.51522 4.65481L6.37875 4.0888L6.73127 3.73011H6.28261L6.07563 3.26819L5.89911 3.73011H5.3728L5.77575 4.0888L5.62258 4.65481ZM8.57626 4.33675L8.12258 4.65481L8.27575 4.0888L7.8728 3.73011H8.39911L8.57563 3.26819L8.78261 3.73011H9.23127L8.87875 4.0888L9.01522 4.65481L8.57626 4.33675ZM0.622585 7.15481L1.07626 6.83675L1.51522 7.15481L1.37874 6.5888L1.73127 6.23011H1.28261L1.07563 5.76819L0.899107 6.23011H0.372803L0.775751 6.5888L0.622585 7.15481ZM3.57626 6.83675L3.12258 7.15481L3.27575 6.5888L2.8728 6.23011H3.39911L3.57563 5.76819L3.78261 6.23011H4.23127L3.87875 6.5888L4.01522 7.15481L3.57626 6.83675ZM5.62258 7.15481L6.07626 6.83675L6.51522 7.15481L6.37875 6.5888L6.73127 6.23011H6.28261L6.07563 5.76819L5.89911 6.23011H5.3728L5.77575 6.5888L5.62258 7.15481ZM8.57626 6.83675L8.12258 7.15481L8.27575 6.5888L7.8728 6.23011H8.39911L8.57563 5.76819L8.78261 6.23011H9.23127L8.87875 6.5888L9.01522 7.15481L8.57626 6.83675ZM10.6226 2.15481L11.0763 1.83675L11.5152 2.15481L11.3787 1.5888L11.7313 1.23011H11.2826L11.0756 0.768188L10.8991 1.23011H10.3728L10.7758 1.5888L10.6226 2.15481ZM11.0763 4.33675L10.6226 4.65481L10.7758 4.0888L10.3728 3.73011H10.8991L11.0756 3.26819L11.2826 3.73011H11.7313L11.3787 4.0888L11.5152 4.65481L11.0763 4.33675ZM10.6226 7.15481L11.0763 6.83675L11.5152 7.15481L11.3787 6.5888L11.7313 6.23011H11.2826L11.0756 5.76819L10.8991 6.23011H10.3728L10.7758 6.5888L10.6226 7.15481ZM2.32626 3.08675L1.87258 3.40481L2.02575 2.8388L1.6228 2.48011H2.14911L2.32563 2.01819L2.53261 2.48011H2.98127L2.62875 2.8388L2.76522 3.40481L2.32626 3.08675ZM4.37258 3.40481L4.82626 3.08675L5.26522 3.40481L5.12875 2.8388L5.48127 2.48011H5.03261L4.82563 2.01819L4.64911 2.48011H4.1228L4.52575 2.8388L4.37258 3.40481ZM7.32626 3.08675L6.87258 3.40481L7.02575 2.8388L6.6228 2.48011H7.14911L7.32563 2.01819L7.53261 2.48011H7.98127L7.62875 2.8388L7.76522 3.40481L7.32626 3.08675ZM1.87258 5.90481L2.32626 5.58675L2.76522 5.90481L2.62875 5.3388L2.98127 4.98011H2.53261L2.32563 4.51819L2.14911 4.98011H1.6228L2.02575 5.3388L1.87258 5.90481ZM4.82626 5.58675L4.37258 5.90481L4.52575 5.3388L4.1228 4.98011H4.64911L4.82563 4.51819L5.03261 4.98011H5.48127L5.12875 5.3388L5.26522 5.90481L4.82626 5.58675ZM6.87258 5.90481L7.32626 5.58675L7.76522 5.90481L7.62875 5.3388L7.98127 4.98011H7.53261L7.32563 4.51819L7.14911 4.98011H6.6228L7.02575 5.3388L6.87258 5.90481ZM9.82626 3.08675L9.37259 3.40481L9.52575 2.8388L9.1228 2.48011H9.64911L9.82563 2.01819L10.0326 2.48011H10.4813L10.1287 2.8388L10.2652 3.40481L9.82626 3.08675ZM9.37259 5.90481L9.82626 5.58675L10.2652 5.90481L10.1287 5.3388L10.4813 4.98011H10.0326L9.82563 4.51819L9.64911 4.98011H9.1228L9.52575 5.3388L9.37259 5.90481Z" fill="#F7FCFF"/>
</g>
</g>
<rect x="0.25" y="0.25" width="19.5" height="14.5" rx="1.75" stroke="black" stroke-opacity="0.08" stroke-width="0.5"/>
<defs>
<clipPath id="clip0_40_539">
<rect width="20" height="15" rx="2" fill="white"/>
</clipPath>
</defs>
</svg>
