<svg width="30" height="24" viewBox="0 0 30 24" fill="none" xmlns="http://www.w3.org/2000/svg">
<path d="M5.78385 8.04411C5.78385 7.01286 6.6276 6.16911 7.65885 6.16911C8.73697 6.16911 9.53385 7.01286 9.53385 8.04411C9.53385 9.12224 8.73697 9.91911 7.65885 9.91911C6.6276 9.91911 5.78385 9.12224 5.78385 8.04411ZM9.90885 0.919113L10.1901 2.23161C10.6588 2.41911 11.0807 2.65349 11.4557 2.93474L12.7213 2.55974C13.0026 2.46599 13.2838 2.55974 13.4713 2.74724C14.2213 3.59099 14.7838 4.57536 15.1588 5.70036C15.2526 5.93474 15.1588 6.21599 14.9713 6.40349L13.987 7.29411C14.0338 7.57536 14.0338 7.85661 14.0338 8.09099C14.0338 8.32536 14.0338 8.60661 14.0338 8.84099L14.9713 9.73161C15.1588 9.91911 15.2526 10.2004 15.1588 10.4347C14.7838 11.5597 14.2213 12.5441 13.4713 13.3879C13.2838 13.5754 13.0026 13.6691 12.7213 13.5754L11.5495 13.2004C11.1276 13.5285 10.6588 13.8097 10.1901 13.9972L9.90885 15.216C9.8151 15.4972 9.6276 15.6847 9.39322 15.7785C8.83072 15.8722 8.26822 15.9191 7.65885 15.9191C7.09635 15.9191 6.53385 15.8722 5.97135 15.7785C5.73697 15.6847 5.54947 15.4972 5.45572 15.216L5.17447 13.9972C4.70572 13.8097 4.23697 13.5285 3.8151 13.2004L2.64322 13.5754C2.36197 13.6691 2.08072 13.5754 1.89322 13.3879C1.14322 12.5441 0.580724 11.5597 0.205724 10.4347C0.111974 10.2004 0.205724 9.91911 0.393224 9.73161L1.33072 8.84099C1.33072 8.60661 1.33072 8.32536 1.33072 8.09099C1.33072 7.85661 1.33072 7.57536 1.3776 7.29411L0.393224 6.40349C0.205724 6.21599 0.111974 5.93474 0.205724 5.70036C0.580724 4.57536 1.14322 3.59099 1.89322 2.74724C2.08072 2.55974 2.36197 2.46599 2.64322 2.55974L3.90885 2.93474C4.28385 2.65349 4.70572 2.41911 5.17447 2.23161L5.45572 0.919113C5.54947 0.637863 5.73697 0.450363 5.97135 0.356613C6.53385 0.262863 7.09635 0.169113 7.65885 0.169113C8.26822 0.169113 8.83072 0.262863 9.39322 0.356613C9.6276 0.450363 9.8151 0.637863 9.90885 0.919113ZM3.15885 8.09099C3.15885 8.27849 3.20572 8.46599 3.20572 8.60661L3.29947 9.54411L2.26822 10.5285C2.40885 10.9035 2.59635 11.2316 2.83072 11.5597L4.1901 11.1379L4.98697 11.7004C5.26822 11.9347 5.59635 12.1222 5.92447 12.2629L6.76822 12.6379L7.09635 14.0441C7.28385 14.0441 7.47135 14.0441 7.65885 14.0441C7.89322 14.0441 8.08072 14.0441 8.26822 14.0441L8.59635 12.6379L9.4401 12.2629C9.76822 12.1222 10.0963 11.9347 10.3776 11.7004L11.1745 11.1379L12.5338 11.5597C12.7682 11.2316 12.9557 10.9035 13.0963 10.5285L12.0651 9.54411L12.1588 8.60661C12.1588 8.46599 12.1588 8.27849 12.1588 8.09099C12.1588 7.90349 12.1588 7.71599 12.1588 7.52849L12.0182 6.59099L13.0963 5.60661C12.9557 5.23161 12.7682 4.90349 12.5338 4.57536L11.0807 4.99724L10.3307 4.43474C10.0495 4.24724 9.76822 4.05974 9.4401 3.91911L8.59635 3.54411L8.26822 2.09099C8.08072 2.09099 7.89322 2.04411 7.65885 2.04411C7.47135 2.04411 7.28385 2.09099 7.09635 2.09099L6.76822 3.54411L5.92447 3.91911C5.59635 4.05974 5.3151 4.24724 5.03385 4.43474L4.28385 4.99724L2.83072 4.57536C2.59635 4.90349 2.40885 5.23161 2.26822 5.60661L3.34635 6.59099L3.20572 7.52849C3.20572 7.71599 3.15885 7.90349 3.15885 8.09099ZM21.9557 14.4191C22.987 14.4191 23.8307 15.2629 23.8307 16.2941C23.8307 17.3722 22.987 18.1691 21.9557 18.1691C20.8776 18.1691 20.0807 17.3722 20.0807 16.2941C20.0807 15.2629 20.8776 14.4191 21.9557 14.4191ZM27.4401 11.2785L27.0651 12.5441C27.3463 12.9191 27.5807 13.341 27.7682 13.8097L29.0807 14.091C29.362 14.1379 29.5495 14.3722 29.6432 14.6066C29.737 15.1691 29.8307 15.7316 29.8307 16.2941C29.8307 16.9035 29.737 17.466 29.6432 17.9816C29.5495 18.2629 29.362 18.4504 29.0807 18.5441L27.7682 18.8254C27.5807 19.2941 27.3463 19.716 27.0651 20.091L27.4401 21.3566C27.5338 21.6379 27.4401 21.9191 27.2526 22.1066C26.4088 22.8566 25.4245 23.4191 24.2995 23.7941C24.0651 23.8879 23.7838 23.7941 23.5963 23.6066L22.6588 22.6222C22.4245 22.6691 22.1432 22.6691 21.9088 22.6691C21.6745 22.6691 21.3932 22.6691 21.1588 22.6691L20.2682 23.6066C20.0807 23.7941 19.7995 23.8879 19.5651 23.7941C18.4401 23.4191 17.4557 22.8566 16.612 22.1066C16.4245 21.9191 16.3307 21.6379 16.4245 21.3566L16.7995 20.1847C16.4713 19.7629 16.1901 19.2941 16.0026 18.8254L14.7838 18.5441C14.5026 18.4504 14.3151 18.2629 14.2213 17.9816C14.1276 17.466 14.0338 16.9035 14.0338 16.2941C14.0338 15.7316 14.1276 15.1691 14.2213 14.6066C14.3151 14.3722 14.5026 14.1379 14.7838 14.091L16.0026 13.8097C16.1901 13.341 16.4713 12.8722 16.7995 12.4504L16.4245 11.2785C16.3307 10.9972 16.4245 10.716 16.612 10.5285C17.4557 9.77849 18.4401 9.21599 19.5651 8.84099C19.7995 8.74724 20.0807 8.84099 20.2682 9.02849L21.1588 9.96599C21.3932 9.96599 21.6745 9.91911 21.9088 9.91911C22.1432 9.91911 22.4245 9.96599 22.6588 9.96599L23.5963 9.02849C23.7838 8.84099 24.0651 8.74724 24.2995 8.84099C25.4245 9.21599 26.4088 9.77849 27.2526 10.5285C27.4401 10.716 27.5338 10.9972 27.4401 11.2785ZM21.9088 11.7941C21.7213 11.7941 21.5338 11.841 21.3932 11.841L20.4557 11.9347L19.4713 10.9035C19.0963 11.0441 18.7682 11.2316 18.4401 11.466L18.862 12.8254L18.2526 13.6222C18.0651 13.9035 17.8776 14.2316 17.737 14.5597L17.362 15.4035L15.9557 15.7316C15.9557 15.9191 15.9557 16.1066 15.9557 16.2941C15.9557 16.5285 15.9557 16.716 15.9557 16.9035L17.362 17.2316L17.737 18.0754C17.8776 18.4035 18.0651 18.7316 18.2526 19.0129L18.862 19.7629L18.4401 21.1691C18.7682 21.4035 19.0963 21.591 19.4713 21.7316L20.4557 20.7004L21.3932 20.7941C21.5338 20.7941 21.7213 20.7941 21.9088 20.7941C22.0963 20.7941 22.2838 20.7941 22.4713 20.7941L23.4088 20.6535L24.3932 21.7316C24.7682 21.591 25.0963 21.4035 25.4245 21.1691L25.0026 19.716L25.5651 18.966C25.7526 18.6847 25.9401 18.4035 26.0807 18.0754L26.4557 17.2316L27.9088 16.9035C27.9088 16.716 27.9557 16.5285 27.9557 16.2941C27.9557 16.1066 27.9088 15.9191 27.9088 15.7316L26.4557 15.4035L26.0807 14.5129C25.9401 14.2316 25.7526 13.9035 25.5651 13.6691L25.0026 12.9191L25.4245 11.466C25.0963 11.2316 24.7682 11.0441 24.3932 10.9035L23.4088 11.9816L22.4713 11.841C22.2838 11.841 22.0963 11.7941 21.9088 11.7941Z" fill="#CC4744"/>
</svg>
