<svg width="24" height="24" viewBox="0 0 24 24" fill="none" xmlns="http://www.w3.org/2000/svg">
<path d="M15.75 6.75C15.75 5.95312 16.4062 5.25 17.25 5.25C18.0469 5.25 18.75 5.95312 18.75 6.75C18.75 7.59375 18.0469 8.25 17.25 8.25C16.4062 8.25 15.75 7.59375 15.75 6.75ZM15.75 16.5C15.2812 16.5 14.8594 16.5 14.4375 16.4062L13.125 17.6719C12.9375 17.9062 12.6562 18 12.375 18H10.5V19.875C10.5 20.5312 9.98438 21 9.375 21H7.5V22.875C7.5 23.5312 6.98438 24 6.375 24H1.125C0.46875 24 0 23.5312 0 22.875V17.625C0 17.3438 0.09375 17.0625 0.328125 16.8281L7.59375 9.5625C7.5 9.14062 7.5 8.71875 7.5 8.25C7.5 3.70312 11.1562 0 15.75 0C20.2969 0 24 3.70312 24 8.25C24 12.8438 20.2969 16.5 15.75 16.5ZM15.75 14.25C19.0312 14.25 21.75 11.5781 21.75 8.25C21.75 4.96875 19.0312 2.25 15.75 2.25C12.4219 2.25 9.75 4.96875 9.75 8.25C9.75 8.57812 9.75 8.90625 9.79688 9.23438L9.98438 10.3594L2.20312 18.0938V21.75H5.20312V18.75H8.20312V15.75H11.9062L13.6406 14.0156L14.7656 14.2031C15.0938 14.25 15.4219 14.25 15.75 14.25Z" fill="#CC4744"/>
</svg>
