<svg width="101" height="28" viewBox="0 0 101 28" fill="none" xmlns="http://www.w3.org/2000/svg">
<path d="M6.54319 20.4557H8.28367C9.00887 20.4557 9.473 20.1348 9.73408 19.4929L14.6945 7.06316C15.0425 6.21701 14.6654 5.63346 13.7662 5.63346H12.3448C11.6486 5.63346 11.1845 5.95441 10.9524 6.65468L7.41343 16.3417L3.87445 6.65468C3.64239 5.95441 3.17826 5.63346 2.45306 5.63346H1.06067C0.132415 5.63346 -0.215682 6.21701 0.132415 7.06316L5.09279 19.4929C5.35386 20.1348 5.847 20.4557 6.54319 20.4557Z" fill="white"/>
<path d="M23.0041 20.7767C24.9477 20.7767 26.7462 20.0472 27.9935 18.2382V19.2303C27.9935 20.0181 28.4286 20.4557 29.2118 20.4557H30.4882C31.2714 20.4557 31.7355 20.0181 31.7355 19.2303V6.8881C31.7355 6.1003 31.2714 5.63346 30.4882 5.63346H29.2118C28.4286 5.63346 27.9935 6.1003 27.9935 6.8881V7.85096C26.7462 6.04194 24.9477 5.3125 23.0041 5.3125C18.7399 5.3125 15.8101 8.72629 15.8101 13.0446C15.8101 17.3629 18.7399 20.7767 23.0041 20.7767ZM23.7293 17.6547C21.0896 17.6547 19.5522 15.5831 19.5522 13.0446C19.5522 10.5353 21.0896 8.43452 23.7293 8.43452C26.311 8.43452 28.0225 10.3894 28.0515 13.0446C28.0225 15.6998 26.311 17.6547 23.7293 17.6547Z" fill="white"/>
<path d="M41.5032 27.3125C45.7674 27.3125 49.4805 25.1242 49.4805 19.7846V6.8881C49.4805 6.1003 49.0453 5.63346 48.2621 5.63346H47.0148C46.2316 5.63346 45.7964 6.04194 45.7964 6.80056V7.85096C44.5781 6.04194 42.7506 5.3125 40.807 5.3125C36.5429 5.3125 33.6421 8.81383 33.6421 13.0446C33.6421 17.3045 36.5429 20.7767 40.807 20.7767C42.7506 20.7767 44.6071 20.0472 45.8254 18.2382V19.7555C45.8254 22.79 43.9689 24.278 41.3002 24.278C39.9078 24.278 38.5734 23.9279 37.3841 23.2276C36.6879 22.8191 36.1368 22.9358 35.7306 23.6653L35.4406 24.1905C35.0925 24.8907 35.2085 25.5035 35.8757 25.8828C37.3261 26.7289 39.0956 27.3125 41.5032 27.3125ZM41.5322 17.6839C38.8925 17.6839 37.3551 15.5831 37.3551 13.0446C37.3551 10.5353 38.8925 8.40534 41.5322 8.40534C44.114 8.40534 45.8254 10.3894 45.8544 13.0446C45.8254 15.6998 44.114 17.6839 41.5322 17.6839Z" fill="white"/>
<path d="M58.804 20.7767C60.7476 20.7767 62.5461 20.0472 63.7934 18.2382V19.2303C63.7934 20.0181 64.2285 20.4557 65.0118 20.4557H66.2881C67.0713 20.4557 67.5355 20.0181 67.5355 19.2303V6.8881C67.5355 6.1003 67.0713 5.63346 66.2881 5.63346H65.0118C64.2285 5.63346 63.7934 6.1003 63.7934 6.8881V7.85096C62.5461 6.04194 60.7476 5.3125 58.804 5.3125C54.5399 5.3125 51.6101 8.72629 51.6101 13.0446C51.6101 17.3629 54.5399 20.7767 58.804 20.7767ZM59.5292 17.6547C56.8895 17.6547 55.3521 15.5831 55.3521 13.0446C55.3521 10.5353 56.8895 8.43452 59.5292 8.43452C62.111 8.43452 63.8224 10.3894 63.8514 13.0446C63.8224 15.6998 62.111 17.6547 59.5292 17.6547Z" fill="white"/>
<path d="M72.3044 20.4557H73.5808C74.364 20.4557 74.8281 20.0181 74.8281 19.2303V14.591C74.8281 9.74751 76.9167 8.90136 78.3091 8.90136C78.5411 8.90136 78.8022 8.93054 79.0633 8.98889C79.6144 9.07643 79.9625 8.75547 79.9625 7.99685V6.53796C79.9625 5.95441 79.8465 5.42921 79.2083 5.37086C79.0633 5.34168 78.7442 5.3125 78.6282 5.3125C77.1197 5.3125 75.2342 6.39208 74.7411 8.93054V6.8881C74.7411 6.1003 74.306 5.63346 73.5228 5.63346H72.3044C71.5212 5.63346 71.0861 6.1003 71.0861 6.8881V19.2303C71.0861 20.0181 71.5212 20.4557 72.3044 20.4557Z" fill="white"/>
<path d="M87.675 20.7767C92.1712 20.7767 95.6522 17.3337 95.6522 13.0446C95.6522 8.81383 92.1712 5.3125 87.675 5.3125C83.1787 5.3125 79.7268 8.78465 79.7268 13.0446C79.7268 17.3337 83.1787 20.7767 87.675 20.7767ZM87.675 17.6255C85.2383 17.6255 83.3238 15.6122 83.3238 13.0738C83.3238 10.5061 85.2383 8.46369 87.675 8.46369C90.1116 8.46369 92.0262 10.5061 92.0262 13.0738C92.0262 15.6122 90.1116 17.6255 87.675 17.6255Z" fill="white"/>
</svg>
