<?xml version="1.0" encoding="UTF-8"?> <svg xmlns="http://www.w3.org/2000/svg" width="90" height="27" viewBox="0 0 90 27" fill="none"><path d="M6.15655 20.3685H7.79418C8.47653 20.3685 8.91324 20.0665 9.15888 19.4626L13.8261 7.76733C14.1537 6.97118 13.7988 6.42211 12.9527 6.42211H11.6153C10.9603 6.42211 10.5236 6.7241 10.3052 7.38298L6.97537 16.4976L3.64551 7.38298C3.42716 6.7241 2.99045 6.42211 2.3081 6.42211H0.997996C0.12459 6.42211 -0.202937 6.97118 0.12459 7.76733L4.79185 19.4626C5.0375 20.0665 5.50149 20.3685 6.15655 20.3685Z" fill="#CC4744"></path><path d="M21.6448 20.6705C23.4735 20.6705 25.1657 19.9842 26.3394 18.2821V19.2155C26.3394 19.9567 26.7488 20.3685 27.4857 20.3685H28.6866C29.4236 20.3685 29.8603 19.9567 29.8603 19.2155V7.60261C29.8603 6.86136 29.4236 6.42211 28.6866 6.42211H27.4857C26.7488 6.42211 26.3394 6.86136 26.3394 7.60261V8.50858C25.1657 6.80646 23.4735 6.12012 21.6448 6.12012C17.6326 6.12012 14.8759 9.33219 14.8759 13.3953C14.8759 17.4584 17.6326 20.6705 21.6448 20.6705ZM22.3271 17.733C19.8434 17.733 18.3968 15.7838 18.3968 13.3953C18.3968 11.0343 19.8434 9.05765 22.3271 9.05765C24.7563 9.05765 26.3666 10.897 26.3939 13.3953C26.3666 15.8936 24.7563 17.733 22.3271 17.733Z" fill="#CC4744"></path><path d="M39.0508 26.8201C43.063 26.8201 46.5566 24.7611 46.5566 19.7371V7.60261C46.5566 6.86136 46.1472 6.42211 45.4103 6.42211H44.2366C43.4997 6.42211 43.0903 6.80646 43.0903 7.52025V8.50858C41.9439 6.80646 40.2244 6.12012 38.3957 6.12012C34.3835 6.12012 31.6541 9.41455 31.6541 13.3953C31.6541 17.4035 34.3835 20.6705 38.3957 20.6705C40.2244 20.6705 41.9712 19.9842 43.1176 18.2821V19.7096C43.1176 22.5648 41.3708 23.9649 38.8597 23.9649C37.5496 23.9649 36.2941 23.6355 35.175 22.9766C34.52 22.5923 34.0014 22.7021 33.6193 23.3884L33.3463 23.8826C33.0188 24.5415 33.128 25.118 33.7558 25.4749C35.1205 26.271 36.7854 26.8201 39.0508 26.8201ZM39.0781 17.7604C36.5943 17.7604 35.1477 15.7838 35.1477 13.3953C35.1477 11.0343 36.5943 9.0302 39.0781 9.0302C41.5072 9.0302 43.1176 10.897 43.1449 13.3953C43.1176 15.8936 41.5072 17.7604 39.0781 17.7604Z" fill="#CC4744"></path><path d="M55.3293 20.6705C57.158 20.6705 58.8502 19.9842 60.0238 18.2821V19.2155C60.0238 19.9567 60.4332 20.3685 61.1702 20.3685H62.3711C63.108 20.3685 63.5447 19.9567 63.5447 19.2155V7.60261C63.5447 6.86136 63.108 6.42211 62.3711 6.42211H61.1702C60.4332 6.42211 60.0238 6.86136 60.0238 7.60261V8.50858C58.8502 6.80646 57.158 6.12012 55.3293 6.12012C51.3171 6.12012 48.5604 9.33219 48.5604 13.3953C48.5604 17.4584 51.3171 20.6705 55.3293 20.6705ZM56.0116 17.733C53.5279 17.733 52.0813 15.7838 52.0813 13.3953C52.0813 11.0343 53.5279 9.05765 56.0116 9.05765C58.4408 9.05765 60.0511 10.897 60.0784 13.3953C60.0511 15.8936 58.4408 17.733 56.0116 17.733Z" fill="#CC4744"></path><path d="M68.0319 20.3685H69.2328C69.9698 20.3685 70.4065 19.9567 70.4065 19.2155V14.8504C70.4065 10.2931 72.3716 9.49691 73.6817 9.49691C73.9001 9.49691 74.1457 9.52436 74.3914 9.57927C74.91 9.66163 75.2375 9.35964 75.2375 8.64585V7.27317C75.2375 6.7241 75.1283 6.22993 74.5278 6.17503C74.3914 6.14757 74.0911 6.12012 73.982 6.12012C72.5627 6.12012 70.7886 7.1359 70.3246 9.52436V7.60261C70.3246 6.86136 69.9152 6.42211 69.1782 6.42211H68.0319C67.2949 6.42211 66.8855 6.86136 66.8855 7.60261V19.2155C66.8855 19.9567 67.2949 20.3685 68.0319 20.3685Z" fill="#CC4744"></path><path d="M82.4942 20.6705C86.7247 20.6705 90 17.431 90 13.3953C90 9.41455 86.7247 6.12012 82.4942 6.12012C78.2636 6.12012 75.0156 9.38709 75.0156 13.3953C75.0156 17.431 78.2636 20.6705 82.4942 20.6705ZM82.4942 17.7055C80.2015 17.7055 78.4001 15.8112 78.4001 13.4228C78.4001 11.0069 80.2015 9.0851 82.4942 9.0851C84.7869 9.0851 86.5883 11.0069 86.5883 13.4228C86.5883 15.8112 84.7869 17.7055 82.4942 17.7055Z" fill="#CC4744"></path></svg> 