<svg width="30" height="22" viewBox="0 0 30 22" fill="none" xmlns="http://www.w3.org/2000/svg">
<path d="M24.0176 2.74155H3.01758C2.5957 2.74155 2.26758 3.11655 2.26758 3.49155V15.4915C2.26758 15.9134 2.5957 16.2415 3.01758 16.2415H16.3301C16.0488 16.6165 15.8613 16.9915 15.7676 17.4134L15.4863 18.4915H3.01758C1.33008 18.4915 0.0175781 17.179 0.0175781 15.4915V3.49155C0.0175781 1.85092 1.33008 0.491547 3.01758 0.491547H24.0176C25.6582 0.491547 27.0176 1.85092 27.0176 3.49155V6.53842C26.2676 6.63217 25.6113 6.9603 25.0488 7.5228L24.7676 7.80405V3.49155C24.7676 3.11655 24.3926 2.74155 24.0176 2.74155ZM12.0176 11.3665C12.0176 10.7572 12.4863 10.2415 13.1426 10.2415H15.3926C16.002 10.2415 16.5176 10.7572 16.5176 11.3665C16.5176 12.0228 16.002 12.4915 15.3926 12.4915H13.1426C12.4863 12.4915 12.0176 12.0228 12.0176 11.3665ZM19.8926 5.74155C20.502 5.74155 21.0176 6.25717 21.0176 6.86655C21.0176 7.5228 20.502 7.99155 19.8926 7.99155H13.1426C12.4863 7.99155 12.0176 7.5228 12.0176 6.86655C12.0176 6.25717 12.4863 5.74155 13.1426 5.74155H19.8926ZM7.4707 4.05405C8.0332 4.05405 8.45508 4.47592 8.45508 4.99155V5.31967C8.73633 5.36655 9.20508 5.4603 9.43945 5.50717C9.9082 5.6478 10.2363 6.16342 10.0957 6.67905C9.95508 7.1478 9.43945 7.47592 8.92383 7.3353C8.7832 7.28842 8.12695 7.1478 7.93945 7.10092C7.33008 7.05405 6.86133 7.10092 6.58008 7.24155C6.29883 7.38217 6.20508 7.5228 6.20508 7.61655C6.1582 7.80405 6.20508 7.85092 6.20508 7.85092C6.20508 7.8978 6.25195 7.94467 6.39258 8.03842C6.67383 8.22592 7.0957 8.36655 7.75195 8.55405H7.79883C8.36133 8.74155 9.1582 8.97592 9.7207 9.3978C10.002 9.63217 10.3301 9.91342 10.5176 10.3353C10.7051 10.7572 10.7051 11.2259 10.6582 11.7415C10.4707 12.6322 9.9082 13.2415 9.1582 13.5228C8.92383 13.6165 8.68945 13.7103 8.45508 13.7572V13.9915C8.45508 14.554 8.0332 14.9759 7.4707 14.9759C6.95508 14.9759 6.5332 14.554 6.5332 13.9915V13.7103C6.11133 13.6165 5.50195 13.429 5.17383 13.2884C5.08008 13.2415 4.98633 13.2415 4.93945 13.1947C4.4707 13.054 4.18945 12.5384 4.37695 12.0228C4.51758 11.554 5.0332 11.2728 5.54883 11.4134C5.64258 11.4603 5.73633 11.5072 5.83008 11.554C6.29883 11.6947 6.76758 11.8353 7.04883 11.8822C7.6582 11.9759 8.12695 11.929 8.4082 11.8353C8.68945 11.6947 8.7832 11.554 8.7832 11.4134C8.83008 11.2259 8.7832 11.1322 8.7832 11.0853C8.7832 11.0384 8.73633 10.9915 8.5957 10.8978C8.31445 10.7103 7.89258 10.5697 7.23633 10.3353H7.14258C6.58008 10.1478 5.87695 9.9603 5.31445 9.5853C5.0332 9.35092 4.70508 9.06967 4.51758 8.6478C4.33008 8.22592 4.2832 7.75717 4.33008 7.28842C4.51758 6.44467 5.12695 5.8353 5.83008 5.55405C6.01758 5.41342 6.29883 5.36655 6.5332 5.2728V4.99155C6.5332 4.47592 6.95508 4.05405 7.4707 4.05405ZM29.4551 9.25717C30.1582 9.9603 30.1582 11.1322 29.4551 11.8822L28.0488 13.2884L24.7207 9.9603L26.127 8.55405C26.8301 7.85092 28.0488 7.85092 28.752 8.55405L29.4551 9.25717ZM17.5957 17.0384L23.6895 10.9915L27.0176 14.3197L20.9238 20.3665C20.7363 20.554 20.502 20.6947 20.2676 20.7884L17.4082 21.4915C17.1738 21.5384 16.8926 21.4915 16.7051 21.304C16.5176 21.1165 16.4707 20.8353 16.5176 20.554L17.2207 17.7415C17.2676 17.5072 17.4082 17.2728 17.5957 17.0384Z" fill="#CC4744"/>
</svg>
