<svg width="30" height="26" viewBox="0 0 30 26" fill="none" xmlns="http://www.w3.org/2000/svg">
<path d="M7.52344 3.23523C7.52344 2.01648 8.50781 0.985229 9.77344 0.985229C10.9922 0.985229 12.0234 2.01648 12.0234 3.23523C12.0234 4.50085 10.9922 5.48523 9.77344 5.48523C8.50781 5.48523 7.52344 4.50085 7.52344 3.23523ZM4.52344 10.2196C3.63281 10.5946 2.97656 11.3446 2.69531 12.2352L2.55469 12.6102C2.36719 13.2196 1.71094 13.5009 1.14844 13.3134C0.539062 13.1259 0.257812 12.4696 0.445312 11.9071L0.539062 11.5321C1.05469 10.0321 2.13281 8.81335 3.58594 8.1571L4.57031 7.73523C5.60156 7.26648 6.72656 6.98523 7.85156 6.98523C10.1484 6.98523 12.1641 8.48523 12.8203 10.6884L13.3828 12.4227L14.6484 13.6884C15.1172 14.1571 15.1172 14.8602 14.6484 15.2821C14.2266 15.7509 13.5234 15.7509 13.1016 15.2821L11.6953 13.9227C11.5078 13.7352 11.3203 13.454 11.2266 13.1727L10.8047 11.6727L9.39844 16.079L11.7422 17.954C12.0703 18.2352 12.3047 18.6102 12.3984 18.9852L13.4766 23.6259C13.6172 24.2352 13.2422 24.8446 12.6328 24.9852C12.0234 25.1259 11.4141 24.7509 11.2734 24.1415L10.2422 19.6415L5.36719 15.6571C4.47656 14.954 4.14844 13.829 4.52344 12.7977L5.50781 9.75085L4.52344 10.2196ZM6.77344 13.9227L7.52344 14.5321L9.07031 9.6571C9.07031 9.61023 9.07031 9.56335 9.11719 9.51648C8.78906 9.37585 8.41406 9.2821 8.03906 9.2821L6.63281 13.5009C6.58594 13.6415 6.63281 13.829 6.77344 13.9227ZM6.49219 18.5165L5.60156 20.7665C5.50781 21.0009 5.36719 21.2352 5.17969 21.4227L1.89844 24.6571C1.47656 25.1259 0.773438 25.1259 0.351562 24.6571C-0.117188 24.2352 -0.117188 23.5321 0.351562 23.0634L3.53906 19.8759L4.66406 17.0634L6.49219 18.5165ZM29.6484 12.1884C30.1172 12.6571 30.1172 13.3602 29.6484 13.7821L25.8984 17.5321C25.4766 18.0009 24.7734 18.0009 24.3516 17.5321C23.8828 17.1102 23.8828 16.4071 24.3516 15.9384L26.1797 14.1102H18.3984C17.7422 14.1102 17.2734 13.6415 17.2734 12.9852C17.2734 12.3759 17.7422 11.8602 18.3984 11.8602H26.1797L24.3516 10.0321C23.8828 9.61023 23.8828 8.9071 24.3516 8.43835C24.7734 8.01648 25.4766 8.01648 25.8984 8.43835L29.6484 12.1884Z" fill="#CC4744"/>
</svg>
