<?xml version="1.0" encoding="UTF-8" standalone="no"?>
<!DOCTYPE svg PUBLIC "-//W3C//DTD SVG 1.1//EN" "http://www.w3.org/Graphics/SVG/1.1/DTD/svg11.dtd">
<svg width="100%" height="100%" viewBox="0 0 202 62" version="1.1" xmlns="http://www.w3.org/2000/svg" xmlns:xlink="http://www.w3.org/1999/xlink" xml:space="preserve" xmlns:serif="http://www.serif.com/" style="fill-rule:evenodd;clip-rule:evenodd;stroke-linejoin:round;stroke-miterlimit:2;">
    <path d="M78.784,44.697L77.011,44.697L76.809,42.456C76.42,43.158 75.784,43.763 74.902,44.271C74.019,44.78 72.957,45.034 71.715,45.034C70.353,45.034 69.097,44.727 67.945,44.114C66.793,43.487 65.843,42.53 65.095,41.245C64.362,39.96 63.995,38.458 63.995,36.739C63.995,35.02 64.384,33.518 65.162,32.233C65.94,30.948 66.912,29.999 68.079,29.386C69.261,28.773 70.525,28.467 71.872,28.467C73.578,28.467 75.059,28.908 76.315,29.79C77.587,30.656 78.455,31.815 78.919,33.264L76.921,34.116C76.562,32.965 75.934,32.076 75.036,31.449C74.153,30.806 73.099,30.485 71.872,30.485C70.331,30.485 69.007,31.03 67.9,32.121C66.793,33.212 66.239,34.751 66.239,36.739C66.239,38.742 66.778,40.296 67.855,41.402C68.947,42.493 70.256,43.038 71.782,43.038C72.62,43.038 73.361,42.904 74.004,42.635C74.662,42.366 75.171,42.015 75.53,41.581C75.904,41.133 76.181,40.685 76.36,40.236C76.555,39.788 76.667,39.34 76.697,38.891L71.176,38.891L71.176,36.918L78.784,36.918L78.784,44.697ZM84.162,42.142C84.82,42.814 85.621,43.151 86.563,43.151C87.506,43.151 88.299,42.814 88.942,42.142C89.6,41.454 89.929,40.505 89.929,39.295C89.929,38.099 89.6,37.165 88.942,36.492C88.299,35.805 87.506,35.461 86.563,35.461C85.621,35.461 84.82,35.805 84.162,36.492C83.519,37.165 83.197,38.099 83.197,39.295C83.197,40.505 83.519,41.454 84.162,42.142ZM82.591,35.215C83.638,34.124 84.962,33.578 86.563,33.578C88.164,33.578 89.481,34.124 90.513,35.215C91.56,36.291 92.084,37.651 92.084,39.295C92.084,40.954 91.568,42.329 90.535,43.42C89.503,44.496 88.179,45.034 86.563,45.034C84.947,45.034 83.623,44.496 82.591,43.42C81.559,42.329 81.043,40.954 81.043,39.295C81.043,37.651 81.559,36.291 82.591,35.215ZM97.004,42.142C97.663,42.814 98.463,43.151 99.406,43.151C100.348,43.151 101.141,42.814 101.784,42.142C102.443,41.454 102.772,40.505 102.772,39.295C102.772,38.099 102.443,37.165 101.784,36.492C101.141,35.805 100.348,35.461 99.406,35.461C98.463,35.461 97.663,35.805 97.004,36.492C96.361,37.165 96.039,38.099 96.039,39.295C96.039,40.505 96.361,41.454 97.004,42.142ZM95.434,35.215C96.481,34.124 97.805,33.578 99.406,33.578C101.006,33.578 102.323,34.124 103.355,35.215C104.403,36.291 104.926,37.651 104.926,39.295C104.926,40.954 104.41,42.329 103.378,43.42C102.345,44.496 101.021,45.034 99.406,45.034C97.79,45.034 96.466,44.496 95.434,43.42C94.401,42.329 93.885,40.954 93.885,39.295C93.885,37.651 94.401,36.291 95.434,35.215ZM106.84,45.28L108.882,44.809C108.957,45.572 109.263,46.199 109.802,46.693C110.341,47.201 111.014,47.455 111.822,47.455C114.021,47.455 115.121,46.289 115.121,43.958L115.121,42.411C114.851,42.934 114.425,43.36 113.841,43.689C113.273,44.017 112.6,44.182 111.822,44.182C110.385,44.182 109.196,43.696 108.253,42.725C107.326,41.738 106.862,40.483 106.862,38.958C106.862,37.479 107.326,36.238 108.253,35.237C109.181,34.221 110.37,33.713 111.822,33.713C113.467,33.713 114.574,34.281 115.143,35.416L115.143,33.914L117.23,33.914L117.23,43.89C117.23,44.608 117.133,45.273 116.939,45.885C116.759,46.513 116.467,47.089 116.063,47.612C115.659,48.135 115.091,48.546 114.358,48.845C113.639,49.144 112.794,49.293 111.822,49.293C110.49,49.293 109.361,48.912 108.433,48.15C107.505,47.402 106.974,46.446 106.84,45.28ZM112.136,42.411C113.048,42.411 113.789,42.097 114.358,41.469C114.926,40.827 115.21,39.99 115.21,38.958C115.21,37.927 114.926,37.098 114.358,36.47C113.789,35.827 113.048,35.506 112.136,35.506C111.208,35.506 110.453,35.82 109.869,36.448C109.301,37.075 109.016,37.912 109.016,38.958C109.016,40.02 109.293,40.864 109.847,41.492C110.415,42.104 111.178,42.411 112.136,42.411ZM122.708,44.697L120.599,44.697L120.599,28.467L122.708,28.467L122.708,44.697ZM127.666,38.196L133.568,38.196C133.538,37.389 133.268,36.732 132.76,36.223C132.251,35.7 131.533,35.439 130.605,35.439C129.768,35.439 129.079,35.715 128.541,36.268C128.002,36.806 127.71,37.449 127.666,38.196ZM133.882,40.998L135.7,41.626C135.385,42.627 134.802,43.449 133.949,44.092C133.096,44.72 132.064,45.034 130.852,45.034C129.341,45.034 128.055,44.518 126.992,43.487C125.945,42.441 125.421,41.036 125.421,39.272C125.421,37.628 125.93,36.268 126.947,35.192C127.965,34.116 129.177,33.578 130.583,33.578C132.214,33.578 133.485,34.094 134.398,35.125C135.311,36.141 135.767,37.509 135.767,39.227C135.767,39.496 135.752,39.721 135.722,39.9L127.598,39.9C127.613,40.856 127.927,41.641 128.541,42.254C129.169,42.867 129.94,43.173 130.852,43.173C132.393,43.173 133.403,42.448 133.882,40.998ZM146.494,36.223L149.681,36.223C150.623,36.223 151.371,35.984 151.925,35.506C152.478,35.013 152.755,34.355 152.755,33.533C152.755,32.696 152.478,32.031 151.925,31.538C151.371,31.03 150.623,30.776 149.681,30.776L146.494,30.776L146.494,36.223ZM150.084,38.196L146.494,38.196L146.494,44.697L144.295,44.697L144.295,28.803L150.084,28.803C151.536,28.803 152.718,29.252 153.63,30.148C154.543,31.045 154.999,32.166 154.999,33.511C154.999,34.871 154.543,35.992 153.63,36.874C152.718,37.755 151.536,38.196 150.084,38.196ZM159.351,44.697L157.241,44.697L157.241,28.467L159.351,28.467L159.351,44.697ZM162.266,41.805C162.266,40.879 162.565,40.139 163.164,39.586C163.762,39.018 164.555,38.667 165.542,38.532L168.46,38.106C169.013,38.032 169.29,37.763 169.29,37.3C169.29,36.732 169.096,36.268 168.707,35.91C168.318,35.551 167.734,35.372 166.956,35.372C166.238,35.372 165.669,35.573 165.251,35.977C164.832,36.365 164.585,36.889 164.51,37.546L162.49,37.075C162.595,36.044 163.066,35.207 163.904,34.565C164.742,33.907 165.744,33.578 166.911,33.578C168.437,33.578 169.567,33.952 170.3,34.699C171.033,35.431 171.4,36.373 171.4,37.524L171.4,42.926C171.4,43.569 171.444,44.159 171.534,44.697L169.47,44.697C169.395,44.249 169.357,43.763 169.357,43.24C169.058,43.718 168.617,44.137 168.033,44.496C167.465,44.854 166.747,45.034 165.879,45.034C164.817,45.034 163.949,44.72 163.276,44.092C162.602,43.449 162.266,42.687 162.266,41.805ZM166.171,43.263C167.113,43.263 167.869,43.009 168.437,42.5C169.006,41.992 169.29,41.185 169.29,40.079L169.29,39.586L165.991,40.079C165.512,40.154 165.131,40.326 164.847,40.595C164.562,40.864 164.42,41.23 164.42,41.693C164.42,42.112 164.577,42.478 164.892,42.792C165.221,43.106 165.647,43.263 166.171,43.263ZM177.161,49.203L174.849,49.203L177.542,43.509L172.897,33.914L175.32,33.914L178.687,41.357L181.918,33.914L184.185,33.914L177.161,49.203Z" style="fill:white;fill-rule:nonzero;"/>
    <path d="M70.235,20.144L70.235,16.993L67.208,16.993L67.208,18.017L69.123,18.017C69.055,18.445 68.619,19.196 67.499,19.196C66.482,19.196 65.584,18.487 65.584,17.121C65.584,15.686 66.576,15.063 67.491,15.063C68.474,15.063 68.978,15.686 69.132,16.224L70.26,15.823C69.961,14.892 69.081,13.961 67.491,13.961C65.849,13.961 64.387,15.165 64.387,17.121C64.387,19.076 65.781,20.272 67.414,20.272C68.328,20.272 68.927,19.862 69.2,19.452L69.277,20.144L70.235,20.144ZM76.824,20.144L76.824,19.034L74.208,19.034L74.208,17.633L76.576,17.633L76.576,16.583L74.208,16.583L74.208,15.199L76.824,15.199L76.824,14.089L73.028,14.089L73.028,20.144L76.824,20.144ZM84.17,15.208L84.17,14.089L79.152,14.089L79.152,15.208L81.067,15.208L81.067,20.144L82.255,20.144L82.255,15.208L84.17,15.208ZM91.515,20.144L91.515,14.089L90.319,14.089L90.319,20.144L91.515,20.144ZM98.964,15.208L98.964,14.089L93.946,14.089L93.946,15.208L95.861,15.208L95.861,20.144L97.049,20.144L97.049,15.208L98.964,15.208ZM105.976,17.112C105.976,15.746 106.933,15.097 107.865,15.097C108.806,15.097 109.763,15.746 109.763,17.112C109.763,18.479 108.806,19.128 107.865,19.128C106.933,19.128 105.976,18.479 105.976,17.112ZM104.753,17.121C104.753,19.068 106.224,20.272 107.865,20.272C109.515,20.272 110.986,19.068 110.986,17.121C110.986,15.165 109.515,13.961 107.865,13.961C106.224,13.961 104.753,15.165 104.753,17.121ZM118.784,20.144L118.784,14.089L117.604,14.089L117.604,18.094L115.082,14.089L113.611,14.089L113.611,20.144L114.791,20.144L114.791,15.848L117.544,20.144L118.784,20.144Z" style="fill:white;fill-opacity:0.6;fill-rule:nonzero;"/>
    <path d="M48.787,29.212L43.999,26.446L39.098,31.348L43.999,36.249L48.804,33.475C49.553,33.02 50,32.225 50,31.348C50,30.472 49.553,29.676 48.787,29.212Z" style="fill:rgb(255,206,0);fill-rule:nonzero;"/>
    <path d="M39.098,31.348L25.746,17.9C25.282,18.365 25,18.995 25,19.692L25,42.963C25,43.66 25.282,44.29 25.746,44.755L39.098,31.348Z" style="fill:url(#_Linear1);fill-rule:nonzero;"/>
    <path d="M39.097,31.348L43.999,26.447L44.007,26.439L37.439,22.657L28.782,17.569C28.002,17.088 27.057,17.071 26.26,17.519C26.078,17.635 25.912,17.751 25.746,17.901L39.097,31.348Z" style="fill:rgb(0,240,118);fill-rule:nonzero;"/>
    <path d="M25.746,44.755C25.912,44.904 26.078,45.021 26.26,45.136C26.658,45.352 27.073,45.468 27.488,45.468C27.935,45.468 28.367,45.336 28.765,45.104L37.439,40.04L44.007,36.258L43.999,36.25L39.097,31.349L25.746,44.755Z" style="fill:rgb(246,52,72);fill-rule:nonzero;"/>
    <defs>
        <linearGradient id="_Linear1" x1="0" y1="0" x2="1" y2="0" gradientUnits="userSpaceOnUse" gradientTransform="matrix(13.427,-13.4273,13.4273,13.427,19.0331,38.041)"><stop offset="0" style="stop-color:rgb(0,226,255);stop-opacity:1"/><stop offset="1" style="stop-color:rgb(0,197,255);stop-opacity:1"/></linearGradient>
    </defs>
</svg>
