<svg width="24" height="24" viewBox="0 0 24 24" fill="none" xmlns="http://www.w3.org/2000/svg">
<path d="M21.8438 3.91406C22.6875 4.28906 23.25 5.08594 23.25 5.97656C23.25 18.1641 14.2969 23.9766 11.9531 23.9766C9.60938 23.9766 0.75 18.0703 0.75 5.97656C0.75 5.08594 1.26562 4.28906 2.10938 3.91406L11.1094 0.164062C11.3906 0.0703125 11.6719 0.0234375 12 0.0234375C12.2812 0.0234375 12.5625 0.0703125 12.8438 0.164062L21.8438 3.91406ZM12 21.7266C16.3594 19.8984 21 14.1328 21 5.97656L12 2.22656L3 5.97656C3 13.9453 7.40625 19.8516 12 21.7266ZM9.375 11.5547L10.7812 12.9609L14.4844 8.60156C14.7188 8.32031 15.0469 8.22656 15.375 8.22656C16.2188 8.22656 16.5 8.97656 16.5 9.35156C16.5 9.58594 16.4062 9.86719 16.2188 10.0547L11.7188 15.3047C11.3906 15.6797 10.9688 15.7266 10.875 15.7266C10.5469 15.7266 10.2656 15.6328 10.0781 15.3984L7.82812 13.1484C7.59375 12.9609 7.5 12.6797 7.5 12.3516C7.5 11.7422 7.96875 11.2266 8.625 11.2266C8.90625 11.2266 9.1875 11.3672 9.375 11.5547Z" fill="#CC4744"/>
</svg>
