<svg width="24" height="24" viewBox="0 0 24 24" fill="none" xmlns="http://www.w3.org/2000/svg">
<path d="M21 14.2383C22.6406 14.2383 24 15.5977 24 17.2383V20.9883C24 22.6758 22.6406 23.9883 21 23.9883H3C1.3125 23.9883 0 22.6758 0 20.9883V17.2383C0 15.5977 1.3125 14.2383 3 14.2383H9V16.4883H3C2.57812 16.4883 2.25 16.8633 2.25 17.2383V20.9883C2.25 21.4102 2.57812 21.7383 3 21.7383H21C21.375 21.7383 21.75 21.4102 21.75 20.9883V17.2383C21.75 16.8633 21.375 16.4883 21 16.4883H15V14.2383H21ZM6.375 8.28516C5.95312 8.75391 5.25 8.75391 4.82812 8.28516C4.35938 7.86328 4.35938 7.16016 4.82812 6.73828L11.2031 0.363281C11.625 -0.105469 12.3281 -0.105469 12.75 0.363281L19.125 6.73828C19.5938 7.16016 19.5938 7.86328 19.125 8.28516C18.9375 8.51953 18.6562 8.61328 18.375 8.61328C18.0469 8.61328 17.7656 8.51953 17.5781 8.28516L13.125 3.83203V16.4883C13.125 17.1445 12.6094 17.6133 12 17.6133C11.3438 17.6133 10.875 17.1445 10.875 16.4883V3.83203L6.375 8.28516ZM20.25 19.1133C20.25 19.7695 19.7344 20.2383 19.125 20.2383C18.4688 20.2383 18 19.7695 18 19.1133C18 18.5039 18.4688 17.9883 19.125 17.9883C19.7344 17.9883 20.25 18.5039 20.25 19.1133Z" fill="#CC4744"/>
</svg>
