<svg width="20" height="16" viewBox="0 0 20 16" fill="none" xmlns="http://www.w3.org/2000/svg">
<path fill-rule="evenodd" clip-rule="evenodd" d="M0 0.5H20V15.5H0V0.5Z" fill="#F7FCFF"/>
<path fill-rule="evenodd" clip-rule="evenodd" d="M0 9.6665V10.9165H20V9.6665H0Z" fill="#E31D1C"/>
<path fill-rule="evenodd" clip-rule="evenodd" d="M0 11.9585V13.2085H20V11.9585H0Z" fill="#E31D1C"/>
<path fill-rule="evenodd" clip-rule="evenodd" d="M0 5.0835V6.3335H20V5.0835H0Z" fill="#E31D1C"/>
<path fill-rule="evenodd" clip-rule="evenodd" d="M0 14.25V15.5H20V14.25H0Z" fill="#E31D1C"/>
<path fill-rule="evenodd" clip-rule="evenodd" d="M0 7.375V8.625H20V7.375H0Z" fill="#E31D1C"/>
<path fill-rule="evenodd" clip-rule="evenodd" d="M0 0.5V1.75H20V0.5H0Z" fill="#E31D1C"/>
<path fill-rule="evenodd" clip-rule="evenodd" d="M0 2.7915V4.0415H20V2.7915H0Z" fill="#E31D1C"/>
<rect y="0.5" width="12.5" height="8.125" fill="#2E42A5"/>
<path fill-rule="evenodd" clip-rule="evenodd" d="M1.0765 2.33675L0.622829 2.65481L0.775995 2.0888L0.373047 1.73011H0.899351L1.07587 1.26819L1.28285 1.73011H1.73151L1.37899 2.0888L1.51547 2.65481L1.0765 2.33675ZM3.5765 2.33675L3.12283 2.65481L3.27599 2.0888L2.87305 1.73011H3.39935L3.57587 1.26819L3.78285 1.73011H4.23151L3.87899 2.0888L4.01547 2.65481L3.5765 2.33675ZM5.62283 2.65481L6.0765 2.33675L6.51547 2.65481L6.37899 2.0888L6.73151 1.73011H6.28285L6.07587 1.26819L5.89935 1.73011H5.37305L5.77599 2.0888L5.62283 2.65481ZM8.5765 2.33675L8.12283 2.65481L8.27599 2.0888L7.87305 1.73011H8.39935L8.57587 1.26819L8.78285 1.73011H9.23151L8.87899 2.0888L9.01546 2.65481L8.5765 2.33675ZM0.622829 5.15481L1.0765 4.83675L1.51547 5.15481L1.37899 4.5888L1.73151 4.23011H1.28285L1.07587 3.76819L0.899351 4.23011H0.373047L0.775995 4.5888L0.622829 5.15481ZM3.5765 4.83675L3.12283 5.15481L3.27599 4.5888L2.87305 4.23011H3.39935L3.57587 3.76819L3.78285 4.23011H4.23151L3.87899 4.5888L4.01547 5.15481L3.5765 4.83675ZM5.62283 5.15481L6.0765 4.83675L6.51547 5.15481L6.37899 4.5888L6.73151 4.23011H6.28285L6.07587 3.76819L5.89935 4.23011H5.37305L5.77599 4.5888L5.62283 5.15481ZM8.5765 4.83675L8.12283 5.15481L8.27599 4.5888L7.87305 4.23011H8.39935L8.57587 3.76819L8.78285 4.23011H9.23151L8.87899 4.5888L9.01546 5.15481L8.5765 4.83675ZM0.622829 7.65481L1.0765 7.33675L1.51547 7.65481L1.37899 7.0888L1.73151 6.73011H1.28285L1.07587 6.26819L0.899351 6.73011H0.373047L0.775995 7.0888L0.622829 7.65481ZM3.5765 7.33675L3.12283 7.65481L3.27599 7.0888L2.87305 6.73011H3.39935L3.57587 6.26819L3.78285 6.73011H4.23151L3.87899 7.0888L4.01547 7.65481L3.5765 7.33675ZM5.62283 7.65481L6.0765 7.33675L6.51547 7.65481L6.37899 7.0888L6.73151 6.73011H6.28285L6.07587 6.26819L5.89935 6.73011H5.37305L5.77599 7.0888L5.62283 7.65481ZM8.5765 7.33675L8.12283 7.65481L8.27599 7.0888L7.87305 6.73011H8.39935L8.57587 6.26819L8.78285 6.73011H9.23151L8.87899 7.0888L9.01546 7.65481L8.5765 7.33675ZM10.6228 2.65481L11.0765 2.33675L11.5155 2.65481L11.379 2.0888L11.7315 1.73011H11.2829L11.0759 1.26819L10.8994 1.73011H10.373L10.776 2.0888L10.6228 2.65481ZM11.0765 4.83675L10.6228 5.15481L10.776 4.5888L10.373 4.23011H10.8994L11.0759 3.76819L11.2829 4.23011H11.7315L11.379 4.5888L11.5155 5.15481L11.0765 4.83675ZM10.6228 7.65481L11.0765 7.33675L11.5155 7.65481L11.379 7.0888L11.7315 6.73011H11.2829L11.0759 6.26819L10.8994 6.73011H10.373L10.776 7.0888L10.6228 7.65481ZM2.3265 3.58675L1.87283 3.90481L2.02599 3.3388L1.62305 2.98011H2.14935L2.32587 2.51819L2.53285 2.98011H2.98151L2.62899 3.3388L2.76547 3.90481L2.3265 3.58675ZM4.37283 3.90481L4.8265 3.58675L5.26547 3.90481L5.12899 3.3388L5.48151 2.98011H5.03285L4.82587 2.51819L4.64935 2.98011H4.12305L4.52599 3.3388L4.37283 3.90481ZM7.3265 3.58675L6.87283 3.90481L7.02599 3.3388L6.62305 2.98011H7.14935L7.32587 2.51819L7.53285 2.98011H7.98151L7.62899 3.3388L7.76547 3.90481L7.3265 3.58675ZM1.87283 6.40481L2.3265 6.08675L2.76547 6.40481L2.62899 5.8388L2.98151 5.48011H2.53285L2.32587 5.01819L2.14935 5.48011H1.62305L2.02599 5.8388L1.87283 6.40481ZM4.8265 6.08675L4.37283 6.40481L4.52599 5.8388L4.12305 5.48011H4.64935L4.82587 5.01819L5.03285 5.48011H5.48151L5.12899 5.8388L5.26547 6.40481L4.8265 6.08675ZM6.87283 6.40481L7.3265 6.08675L7.76547 6.40481L7.62899 5.8388L7.98151 5.48011H7.53285L7.32587 5.01819L7.14935 5.48011H6.62305L7.02599 5.8388L6.87283 6.40481ZM9.8265 3.58675L9.37283 3.90481L9.52599 3.3388L9.12305 2.98011H9.64935L9.82587 2.51819L10.0329 2.98011H10.4815L10.129 3.3388L10.2655 3.90481L9.8265 3.58675ZM9.37283 6.40481L9.8265 6.08675L10.2655 6.40481L10.129 5.8388L10.4815 5.48011H10.0329L9.82587 5.01819L9.64935 5.48011H9.12305L9.52599 5.8388L9.37283 6.40481Z" fill="#F7FCFF"/>
</svg>
