<svg width="30" height="24" viewBox="0 0 30 24" fill="none" xmlns="http://www.w3.org/2000/svg">
<path d="M10.5 12C7.17188 12 4.5 9.32812 4.5 6C4.5 2.71875 7.17188 0 10.5 0C13.7812 0 16.5 2.71875 16.5 6C16.5 9.32812 13.7812 12 10.5 12ZM10.5 2.25C8.39062 2.25 6.75 3.9375 6.75 6C6.75 8.10938 8.39062 9.75 10.5 9.75C12.5625 9.75 14.25 8.10938 14.25 6C14.25 3.9375 12.5625 2.25 10.5 2.25ZM12.8438 14.25C17.3438 14.25 21 17.9062 21 22.4062C21 23.2969 20.25 24 19.3594 24H1.59375C0.703125 24 0 23.2969 0 22.4062C0 17.9062 3.60938 14.25 8.10938 14.25H12.8438ZM2.25 21.75H18.7031C18.3281 18.8438 15.8906 16.5 12.8438 16.5H8.10938C5.0625 16.5 2.57812 18.8438 2.25 21.75ZM22.4531 15C26.625 15 30 18.375 30 22.5C30 23.3438 29.2969 24 28.5 24H22.0312C22.3125 23.5312 22.5 23.0156 22.5 22.4062C22.5 19.4531 21.1406 16.7812 18.9844 15H22.4531ZM20.25 12C18.75 12 17.4375 11.4375 16.5 10.4531C17.4375 9.23438 18 7.6875 18 6C18 4.78125 17.625 3.60938 17.1094 2.57812C17.9531 1.92188 19.0312 1.5 20.25 1.5C23.1094 1.5 25.5 3.89062 25.5 6.75C25.5 9.65625 23.1094 12 20.25 12Z" fill="#CC4744"/>
</svg>
