<svg width="30" height="24" viewBox="0 0 30 24" fill="none" xmlns="http://www.w3.org/2000/svg">
<path d="M10.5 12C7.17188 12 4.5 9.32812 4.5 6C4.5 2.71875 7.17188 0 10.5 0C13.7812 0 16.5 2.71875 16.5 6C16.5 9.32812 13.7812 12 10.5 12ZM10.5 2.25C8.39062 2.25 6.75 3.9375 6.75 6C6.75 8.10938 8.39062 9.75 10.5 9.75C12.5625 9.75 14.25 8.10938 14.25 6C14.25 3.9375 12.5625 2.25 10.5 2.25ZM12.8438 14.25C17.3438 14.25 21 17.9062 21 22.4062C21 23.2969 20.25 24 19.3594 24H1.59375C0.703125 24 0 23.2969 0 22.4062C0 17.9062 3.60938 14.25 8.10938 14.25H12.8438ZM2.25 21.75H18.7031C18.3281 18.8438 15.8906 16.5 12.8438 16.5H8.10938C5.0625 16.5 2.57812 18.8438 2.25 21.75ZM28.875 9.375C29.4844 9.375 30 9.89062 30 10.5C30 11.1562 29.4844 11.625 28.875 11.625H26.625V13.875C26.625 14.5312 26.1094 15 25.5 15C24.8438 15 24.375 14.5312 24.375 13.875V11.625H22.125C21.4688 11.625 21 11.1562 21 10.5C21 9.89062 21.4688 9.375 22.125 9.375H24.375V7.125C24.375 6.51562 24.8438 6 25.5 6C26.1094 6 26.625 6.51562 26.625 7.125V9.375H28.875Z" fill="#CC4744"/>
</svg>
