<svg width="28" height="18" viewBox="0 0 28 18" fill="none" xmlns="http://www.w3.org/2000/svg">
<path d="M26.6094 1.82812C27.1719 2.15625 27.5 2.76562 27.5 3.375V14.625C27.5 15.2812 27.1719 15.8906 26.6094 16.2188C26.3281 16.4062 25.9531 16.5469 25.5781 16.5469C25.3438 16.5469 25.0625 16.4531 24.8281 16.3594L20 14.1094V15C20 16.6875 18.6406 18 17 18H3.5C1.8125 18 0.5 16.6875 0.5 15V3C0.5 1.35938 1.8125 0 3.5 0H17C18.6406 0 20 1.35938 20 3V3.89062L24.8281 1.6875C25.3906 1.40625 26.0938 1.45312 26.6094 1.82812ZM17.75 15V3C17.75 2.625 17.375 2.25 17 2.25H3.5C3.07812 2.25 2.75 2.625 2.75 3V15C2.75 15.4219 3.07812 15.75 3.5 15.75H17C17.375 15.75 17.75 15.4219 17.75 15ZM25.25 14.0625V3.98438L20 6.375V11.6719L25.25 14.0625Z" fill="#CC4744"/>
</svg>
